<?xml version="1.0" encoding="UTF-8" standalone="no"?>
<!-- Created with Inkscape (http://www.inkscape.org/) -->
<svg xmlns:inkscape="http://www.inkscape.org/namespaces/inkscape" xmlns:rdf="http://www.w3.org/1999/02/22-rdf-syntax-ns#" xmlns="http://www.w3.org/2000/svg" xmlns:xlink="http://www.w3.org/1999/xlink" xmlns:ns1="http://sozi.baierouge.fr" xmlns:cc="http://creativecommons.org/ns#" xmlns:sodipodi="http://sodipodi.sourceforge.net/DTD/sodipodi-0.dtd" xmlns:dc="http://purl.org/dc/elements/1.1/" id="svg2" xml:space="preserve" viewBox="0 0 456.39 377.47" version="1.1" inkscape:version="0.91 r13725">
  <g id="g10" transform="matrix(1.25 0 0 -1.25 0 377.47)">
    <g id="g12">
      <path id="path14" style="fill-rule:evenodd;fill:#1f2433" d="m59.402 191.61c1.305-0.32 2.692-0.972 4.16-1.96 0.747-0.504 2.293-1.692 4.637-3.559 2.457-1.945 4.457-4.746 6-8.398h0.043c0.824-2 1.32-3.653 1.481-4.961 0.371-3.094-0.707-6.641-3.243-10.641-1.253-2.027-2.558-3.734-3.918-5.121-0.347-0.824-0.562-1.36-0.64-1.598-0.774-2.105-2.442-3.441-5-4-2.774-0.242-4.574-0.496-5.402-0.762l-0.04-0.039-0.039 0.079-0.48-0.239c-0.719-0.531-1.856-0.828-3.399-0.879-2.082-0.027-3.214-0.066-3.402-0.121-0.801-0.187-1.625-0.051-2.48 0.399-0.481 0.269-1.348 0.91-2.598 1.922-0.801 0.668-1.922 1.05-3.359 1.16-1.762-0.055-3.11-0.067-4.043-0.039-0.692 0-1.305 0.144-1.84 0.437-0.692 0.348-1.399 1-2.117 1.961-0.137 0.188-0.868 1.293-2.203 3.32-1.012 1.575-1.731 3.481-2.161 5.719l-0.117 0.602c-0.535 3.172-0.469 6.586 0.199 10.238 0.586 3.227 1.36 5.48 2.321 6.762l0.398 0.48c1.785 2.055 5.469 4.426 11.039 7.121 0.321 0.157 0.934 0.426 1.84 0.797 1.469 0.535 3.121 0.934 4.961 1.203 1.359 0.184 3.281 0.344 5.762 0.477 1.226 0.082 2.426-0.012 3.597-0.277l0.043-0.083z" inkscape:connector-curvature="0"/>
      <path id="path16" style="fill-rule:evenodd;fill:#1f2433" d="m70.242 204.73c1.492 0.746 3.145 0.945 4.957 0.601 1.84-0.348 3.067-1.148 3.68-2.402 0.562-1.121 0.734-2.305 0.523-3.559l-1.242-4.441c-0.879-3.121-2.691-3.664-5.437-1.641-1.016 0.723-1.934 1.442-2.762 2.16-0.426 0.375-1.668 1.481-3.719 3.321-1.496 1.359-1.668 2.535-0.519 3.519 0.211 0.188 1.718 1 4.519 2.442z" inkscape:connector-curvature="0"/>
      <path id="path18" style="fill-rule:evenodd;fill:#1f2433" d="m120.8 206.89c1.574-0.106 3.027-1.055 4.359-2.84 0.879-1.199 1.453-2.254 1.719-3.16 0.082-0.266-0.117-0.934-0.598-2-0.855-1.84-1.386-3.039-1.601-3.602-0.825-2.211-3.211-3.719-7.16-4.519-2.454-0.504-5.227-0.614-8.321-0.321-1.039 0.11-1.277 0.895-0.719 2.36 1.04 2.109 1.801 3.789 2.282 5.043 0.343 0.879 0.812 2.211 1.398 4 0.348 1.144 0.813 2.265 1.402 3.359 0.637 1.254 1.68 1.918 3.118 2 0.855 0.055 2.226-0.055 4.121-0.32z" inkscape:connector-curvature="0"/>
      <path id="path20" style="fill-rule:evenodd;fill:#1f2433" d="m109.4 185.29c0.371-0.933 0.239-2.16-0.402-3.68-0.344-0.824-0.867-1.96-1.559-3.398-0.214-0.586-0.629-2.121-1.242-4.602-0.476-1.867-1-3.359-1.558-4.48-0.774-1.625-1.973-3.039-3.602-4.238-0.906-0.668-2.316-1.707-4.238-3.121-2.266-2.078-4.106-3.532-5.52-4.36-2.719-1.574-4.64-1.574-5.761 0-0.934 1.305-1.575 3.266-1.918 5.879-0.266 2.215-0.282 4.336-0.04 6.36 0.372 3.121 1.305 6.828 2.797 11.121 0.614 1.629 1.602 2.839 2.961 3.64 0.614 0.348 1.403 0.68 2.36 1 0.562 0.188 1.386 0.442 2.48 0.762 0.133 0.051 1.375 0.598 3.719 1.637 1.523 0.668 2.801 1.027 3.844 1.082 0.586 0.027 1.172-0.094 1.757-0.36 0.348-0.132 0.895-0.402 1.641-0.8 0.453-0.215 1.254-0.465 2.399-0.762 0.96-0.344 1.585-0.906 1.882-1.68z" inkscape:connector-curvature="0"/>
      <path id="path22" style="fill-rule:evenodd;fill:#1f2433" d="m122.96 168.57c-1.094 0.055-1.988 0.547-2.68 1.481-0.719 0.933-0.988 2.027-0.801 3.281 0.243 1.84 2.176 2.957 5.801 3.36 1.465 0.183 2.426-1.293 2.879-4.442 0.133-0.933-0.387-1.801-1.558-2.601-1.149-0.774-2.36-1.133-3.641-1.079z" inkscape:connector-curvature="0"/>
      <path id="path24" style="fill-rule:evenodd;fill:#1f2433" d="m249.68 15.37c-1.09 0.051-1.985 0.547-2.68 1.481-0.719 0.933-0.984 2.027-0.801 3.281 0.215 1.758 2.149 2.879 5.801 3.359 1.469 0.184 2.426-1.293 2.879-4.441 0.137-0.934-0.383-1.801-1.559-2.602-1.144-0.773-2.359-1.132-3.64-1.078z" inkscape:connector-curvature="0"/>
      <path id="path26" style="fill-rule:evenodd;fill:#1f2433" d="m16.52 208.89c-1.094 0.054-1.985 0.535-2.68 1.441-0.719 0.934-0.985 2.024-0.801 3.277 0.242 1.79 2.188 2.922 5.84 3.403 1.441 0.16 2.387-1.32 2.844-4.442 0.132-0.961-0.387-1.839-1.563-2.64-1.144-0.774-2.359-1.121-3.64-1.039z" inkscape:connector-curvature="0"/>
      <path id="path28" style="fill-rule:evenodd;fill:#1f2433" d="m122.04 166.85c2.668-0.535 4.348-1.227 5.043-2.082 0.586-0.719 0.238-1.973-1.043-3.758-1.918-2.746-3.012-4.442-3.277-5.082-0.723-1.653-1.895-3.055-3.52-4.199-1.281-0.907-3.027-1.762-5.242-2.559-3.52-1.281-6.227-0.281-8.121 3-1.785 3.117-1.945 6.066-0.477 8.84 1.2 2.265 2.918 3.972 5.16 5.117 1.731 0.906 3.52 1.363 5.36 1.363 1.918 0 3.957-0.215 6.117-0.64z" inkscape:connector-curvature="0"/>
      <path id="path30" style="fill-rule:evenodd;fill:#1f2433" d="m98.039 225.17c3.469 1.812 7.082 2.477 10.84 2 3.574-0.457 6.734-1.855 9.48-4.203 2.055-1.758 2.016-3.824-0.117-6.199-1.469-1.493-2.601-2.68-3.402-3.559-1.438-1.574-2.504-3.094-3.199-4.562-0.852-1.813-2.079-4.2-3.68-7.157-1.039-1.922-1.922-3.894-2.641-5.922-0.773-2.214-2.254-3.695-4.441-4.441-2.934-0.613-5.332-1.293-7.199-2.039-1.707-0.691-4.16-0.664-7.36 0.082-2.718 0.613-4.32 1.16-4.8 1.637-0.321 0.32-0.211 3 0.32 8.043 0.586 5.386 1.336 9.757 2.242 13.117 0.906 3.281 2.598 5.922 5.078 7.922 1.254 1.039 4.215 2.801 8.879 5.281z" inkscape:connector-curvature="0"/>
      <path id="path32" style="fill-rule:evenodd;fill:#1f2433" d="m67.562 233.13c1.36 1.469 3.227 2.016 5.598 1.641 0.828-0.106 3.348-0.84 7.563-2.2 2.398-0.773 3.465-1.961 3.199-3.558-0.215-1.094-0.922-3.723-2.121-7.883-0.613-3.52-2.973-6.211-7.078-8.078-3.547-1.602-7.11-2.215-10.684-1.84-3.199 0.371-4.359 1.945-3.477 4.719 1.333 4.453 2.239 7.336 2.719 8.64 1.52 4.293 2.946 7.145 4.281 8.559z" inkscape:connector-curvature="0"/>
      <path id="path34" style="fill-rule:evenodd;fill:#1f2433" d="m21.242 174.33c-0.43-0.48-1.082-1.203-1.961-2.16-0.879-0.883-1.972-1.695-3.281-2.441-1.199-0.696-1.801-0.653-1.801 0.121 0.055 1.707 0.067 2.586 0.043 2.64-0.586 1.223-1.027 2.2-1.32 2.918-0.508 1.36-0.602 2.586-0.281 3.68 0.453 1.519 1.773 2.348 3.961 2.48 2.132 0.106 3.757-0.48 4.878-1.761 0.961-1.145 1.348-2.2 1.161-3.16-0.106-0.665-0.575-1.438-1.399-2.317z" inkscape:connector-curvature="0"/>
      <path id="path36" style="fill-rule:evenodd;fill:#1f2433" d="m245.8 127.49c2.16 0.106 3.785-0.484 4.879-1.761 0.961-1.149 1.347-2.2 1.16-3.161-0.106-0.668-0.574-1.441-1.399-2.32-0.773-0.957-1.414-1.691-1.918-2.199-0.882-0.879-1.976-1.68-3.281-2.402-1.226-0.692-1.84-0.653-1.84 0.121 0.024 1.734 0.039 2.613 0.039 2.64-0.586 1.227-1.027 2.199-1.32 2.922-0.508 1.36-0.598 2.586-0.281 3.68 0.453 1.519 1.773 2.344 3.961 2.48z" inkscape:connector-curvature="0"/>
      <path id="path38" style="fill-rule:evenodd;fill:#1f2433" d="m325 246.97c0.613-1.254 0.547-1.852-0.199-1.797-1.762 0.105-2.653 0.16-2.68 0.16-1.226-0.535-2.215-0.933-2.961-1.203-1.359-0.426-2.586-0.453-3.68-0.078-1.492 0.531-2.253 1.894-2.281 4.078 0 2.16 0.668 3.762 2 4.801 1.199 0.906 2.281 1.242 3.242 1 0.637-0.16 1.371-0.664 2.2-1.52 0.453-0.453 1.148-1.133 2.082-2.039 0.851-0.933 1.613-2.066 2.277-3.402z" inkscape:connector-curvature="0"/>
      <path id="path40" style="fill-rule:evenodd;fill:#1f2433" d="m99.68 42.288c0.961-1.144 1.347-2.199 1.16-3.16-0.106-0.664-0.57-1.437-1.399-2.32-0.425-0.45-1.082-1.172-1.961-2.16-0.878-0.879-1.972-1.692-3.281-2.438-1.226-0.695-1.84-0.652-1.84 0.121 0.028 1.731 0.043 2.613 0.043 2.637-0.59 1.226-1.027 2.215-1.32 2.961-0.508 1.332-0.602 2.547-0.281 3.64 0.48 1.52 1.812 2.348 4 2.481 2.133 0.105 3.761-0.481 4.879-1.762z" inkscape:connector-curvature="0"/>
      <path id="path42" style="fill-rule:evenodd;fill:#1f2433" d="m287.52 93.491c-0.879 1.84-0.239 2.985 1.921 3.438 1.305 0.293 3.825 0.64 7.559 1.039 1.281 0.269 3.148 0.789 5.602 1.562 1.597 0.481 3.265 0.774 5 0.879 1.972 0.106 3.691-0.984 5.16-3.281 0.879-1.359 2.078-3.758 3.597-7.199 1.387-2.746 1.774-6.067 1.161-9.961-0.426-2.586-1.012-4.547-1.758-5.879-0.215-0.398-1.137-0.707-2.762-0.918-2.906-0.43-4.707-0.707-5.398-0.84-3.254-0.695-7.161 1.84-11.723 7.598-2.93 3.629-5.719 8.148-8.359 13.562z" inkscape:connector-curvature="0"/>
      <path id="path44" style="fill-rule:evenodd;fill:#1f2433" d="m35.52 213.13c1.734-0.586 2.949-1.453 3.64-2.598 1.094-1.761 1.735-3.254 1.922-4.48 0.344-2.16-0.348-4.188-2.082-6.082-2.188-2.399-5.332-4.305-9.438-5.719-4.457-1.519-7.855-1.574-10.203-0.16-3.332 2.027-2.691 5.641 1.922 10.84 1.574 1.785 3.465 3.574 5.68 5.359 1.84 1.496 3.172 2.442 4 2.84 1.254 0.613 2.773 0.613 4.559 0z" inkscape:connector-curvature="0"/>
      <path id="path46" style="fill-rule:evenodd;fill:#1f2433" d="m233.68 69.608c0.508 0.907 1.16 0.629 1.961-0.839 0.238-0.481 0.386-1.067 0.441-1.758 0-0.082 0.012-1.32 0.039-3.719 0-1.789-0.226-2.816-0.68-3.082-0.402-0.293-0.867 0.16-1.402 1.359-1.387 3.282-1.504 5.961-0.359 8.039z" inkscape:connector-curvature="0"/>
      <path id="path48" style="fill-rule:evenodd;fill:#1f2433" d="m4.121 77.21c0.188 0.371 0.52 0.481 1 0.32 0.453-0.16 0.867-0.507 1.238-1.039 0.961-1.363 0.868-2.656-0.277-3.883-1.176-1.253-1.961-1.105-2.359 0.442-0.403 1.492-0.27 2.879 0.398 4.16z" inkscape:connector-curvature="0"/>
      <path id="path50" style="fill-rule:evenodd;fill:#1f2433" d="m218.36 58.171c0.188 0.371 0.52 0.477 1 0.32 0.453-0.16 0.856-0.508 1.203-1.043 0.958-1.359 0.864-2.64-0.281-3.84-1.148-1.253-1.933-1.117-2.359 0.399-0.402 1.523-0.254 2.91 0.437 4.164z" inkscape:connector-curvature="0"/>
      <path id="path52" style="fill-rule:evenodd;fill:#1f2433" d="m239.64 147.81c0.187 0.347 0.519 0.441 1 0.281 0.453-0.16 0.851-0.492 1.199-1 0.961-1.359 0.867-2.652-0.278-3.879-1.148-1.254-1.933-1.105-2.363 0.438-0.398 1.496-0.25 2.882 0.442 4.16z" inkscape:connector-curvature="0"/>
      <path id="path54" style="fill-rule:evenodd;fill:#1f2433" d="m88.879 240.93c0.187 0.375 0.523 0.48 1 0.32 0.453-0.16 0.855-0.508 1.203-1.039 0.957-1.359 0.863-2.652-0.281-3.879-1.145-1.254-1.934-1.109-2.36 0.438-0.402 1.519-0.253 2.906 0.438 4.16z" inkscape:connector-curvature="0"/>
      <path id="path56" style="fill-rule:evenodd;fill:#1f2433" d="m291.84 30.448c0.586-1.25 0.773-2.558 0.562-3.918-0.027-0.105-0.468-1.734-1.32-4.882-0.934-3.411-2.84-4-5.719-1.758-1.281 0.988-3.535 2.988-6.761 6-1.575 1.468-1.762 2.746-0.559 3.84 0.238 0.214 1.824 1.105 4.758 2.679 1.547 0.828 3.265 1.055 5.16 0.684 1.945-0.402 3.238-1.285 3.879-2.645z" inkscape:connector-curvature="0"/>
      <path id="path58" style="fill-rule:evenodd;fill:#1f2433" d="m321.96 19.37c-1.094 0.106-1.332 0.973-0.719 2.598 1.067 2.293 1.852 4.137 2.36 5.523 0.32 0.879 0.8 2.344 1.437 4.399 0.375 1.226 0.867 2.453 1.484 3.679 0.665 1.36 1.758 2.094 3.278 2.2 0.879 0.054 2.32-0.067 4.32-0.36 1.652-0.105 3.172-1.148 4.559-3.117 0.933-1.309 1.535-2.457 1.8-3.441 0.082-0.293-0.132-1.028-0.64-2.203-0.934-2.133-1.492-3.45-1.68-3.957-0.851-2.375-3.348-4.028-7.48-4.961-2.559-0.536-5.465-0.653-8.719-0.36z" inkscape:connector-curvature="0"/>
      <path id="path60" style="fill-rule:evenodd;fill:#1f2433" d="m294.12 28.608c0.613 5.922 1.399 10.723 2.359 14.403 0.934 3.57 2.692 6.465 5.282 8.68 1.332 1.117 4.437 3.039 9.316 5.757 3.629 2 7.414 2.735 11.363 2.2 3.731-0.504 7.039-2.04 9.918-4.598 1.282-1.149 1.868-2.309 1.762-3.481-0.109-0.906-0.734-2.027-1.883-3.359-1.519-1.602-2.691-2.879-3.519-3.84-1.52-1.734-2.641-3.402-3.36-5-0.8-1.789-2.093-4.402-3.879-7.84-1.066-2.082-1.972-4.254-2.718-6.519-0.828-2.43-2.387-4.043-4.684-4.84-3.066-0.695-5.586-1.453-7.558-2.281-1.786-0.746-4.36-0.719-7.719 0.078-2.879 0.695-4.547 1.308-5 1.84-0.321 0.347-0.215 3.281 0.32 8.8z" inkscape:connector-curvature="0"/>
      <path id="path62" style="fill-rule:evenodd;fill:#1f2433" d="m292.12 57.648c2.508-0.852 3.613-2.145 3.32-3.879-0.054-0.371-0.375-1.508-0.961-3.399-0.558-1.894-0.972-3.64-1.242-5.242-0.613-3.84-3.09-6.785-7.437-8.84-3.707-1.758-7.442-2.426-11.199-2-3.336 0.375-4.551 2.094-3.641 5.16 1.652 5.52 2.613 8.68 2.879 9.481 1.601 4.695 3.094 7.812 4.48 9.359 1.442 1.602 3.403 2.203 5.879 1.801 0.856-0.133 3.496-0.945 7.922-2.441z" inkscape:connector-curvature="0"/>
      <path id="path64" style="fill-rule:evenodd;fill:#1f2433" d="m300.64 66.851c0.214 0.398 0.558 0.507 1.039 0.32 0.48-0.188 0.91-0.563 1.281-1.121 1.016-1.492 0.918-2.906-0.281-4.242-1.227-1.36-2.051-1.2-2.481 0.484-0.426 1.625-0.277 3.145 0.442 4.559z" inkscape:connector-curvature="0"/>
      <path id="path66" style="fill-rule:evenodd;fill:#1f2433" d="m216 252.93c0.215 0.375 0.547 0.48 1 0.32s0.867-0.508 1.242-1.039c0.957-1.359 0.867-2.652-0.281-3.879-1.172-1.254-1.961-1.109-2.359 0.438-0.403 1.496-0.266 2.879 0.398 4.16z" inkscape:connector-curvature="0"/>
      <path id="path68" style="fill-rule:evenodd;fill:#1f2433" d="m244.36 54.851c-0.773 0.398-0.867 1.48-0.281 3.238 0.617 1.84 1.656 3.066 3.121 3.68 1.469 0.613 2.508 0.629 3.121 0.043 0.453-0.43 0.719-1.348 0.801-2.762 0.106-1.254-0.695-2.414-2.402-3.481-1.703-1.121-3.157-1.359-4.36-0.718z" inkscape:connector-curvature="0"/>
      <path id="path70" style="fill-rule:evenodd;fill:#1f2433" d="m219.76 159.41c-0.774 0.426-0.867 1.52-0.282 3.282 0.641 1.839 1.692 3.066 3.161 3.679 1.437 0.613 2.464 0.625 3.082 0.039 0.449-0.453 0.73-1.386 0.839-2.801 0.079-1.25-0.722-2.414-2.402-3.48-1.707-1.117-3.172-1.359-4.398-0.719z" inkscape:connector-curvature="0"/>
      <path id="path72" style="fill-rule:evenodd;fill:#1f2433" d="m48.32 237.05c-0.773 0.398-0.867 1.48-0.281 3.238 0.641 1.867 1.695 3.11 3.16 3.723 1.469 0.613 2.496 0.625 3.082 0.039 0.481-0.453 0.758-1.387 0.84-2.801 0.078-1.254-0.719-2.414-2.398-3.48-1.707-1.121-3.176-1.36-4.403-0.719z" inkscape:connector-curvature="0"/>
      <path id="path74" style="fill-rule:evenodd;fill:#1f2433" d="m141.2 241.85c1.094-1.043 2.055-2.868 2.883-5.481 0.879-2.773 0.746-4.242-0.402-4.402-3.465-0.504-5.211-0.758-5.239-0.758-2.453-0.105-4.132 0.453-5.039 1.68-0.933 1.281-1.414 2.734-1.441 4.359-0.027 0.852 0.133 2.199 0.48 4.039 0.266 1.414 1.305 2.281 3.121 2.602 1.973 0.347 3.852-0.332 5.637-2.039z" inkscape:connector-curvature="0"/>
      <path id="path76" style="fill-rule:evenodd;fill:#1f2433" d="m178 14.53c1.094-1.039 2.055-2.882 2.879-5.519 0.883-2.801 0.75-4.27-0.399-4.403-2.16-0.425-3.906-0.664-5.238-0.718-2.453-0.106-4.137 0.453-5.043 1.679-0.933 1.282-1.41 2.735-1.437 4.36-0.028 0.855 0.133 2.203 0.48 4.043 0.266 1.41 1.305 2.265 3.117 2.558 1.977 0.348 3.856-0.32 5.641-2z" inkscape:connector-curvature="0"/>
      <path id="path78" style="fill-rule:evenodd;fill:#1f2433" d="m8.84 170.41c-0.692-1.226-1.57-1.972-2.641-2.238-1.117-0.27-2.094 0.066-2.918 1-1.254 1.359-0.961 4.266 0.879 8.719 0.402 0.984 1.133 1.48 2.199 1.48 0.829 0 1.746-0.265 2.762-0.801 0.801-0.398 1.16-1.507 1.078-3.32-0.105-1.785-0.558-3.398-1.359-4.84z" inkscape:connector-curvature="0"/>
      <path id="path80" style="fill-rule:evenodd;fill:#1f2433" d="m323.56 88.808c-0.453-0.614-1.187-0.317-2.203 0.883-1.039 1.253-1.57 2.718-1.597 4.398-0.055 1.652 0.172 2.668 0.679 3.043 0.399 0.316 1.067 0.266 2-0.16 0.825-0.348 1.387-1.547 1.68-3.602 0.32-2.082 0.133-3.601-0.559-4.562z" inkscape:connector-curvature="0"/>
      <path id="path82" style="fill-rule:evenodd;fill:#1f2433" d="m117.12 106.69c1.441 1.332 2.801 1.878 4.078 1.64 1.067-0.187 1.309-0.816 0.723-1.883-0.32-0.613-0.961-1.652-1.922-3.117-0.48-1.07-1.254-1.64-2.32-1.723-1.118-0.05-1.868 0.497-2.239 1.641-0.293 1.012 0.266 2.16 1.68 3.442z" inkscape:connector-curvature="0"/>
      <path id="path84" style="fill-rule:evenodd;fill:#1f2433" d="m121.6 115.33c0.613 1.492 2.265 2.25 4.96 2.277 2.665 0.028 4.653-0.64 5.958-2 1.148-1.171 1.585-2.238 1.32-3.199-0.184-0.668-0.801-1.414-1.84-2.238-0.531-0.453-1.359-1.148-2.48-2.082-1.118-0.828-2.493-1.574-4.118-2.242-1.547-0.637-2.297-0.586-2.242 0.16 0.082 1.762 0.121 2.656 0.121 2.684-0.695 1.25-1.187 2.25-1.48 3-0.586 1.359-0.653 2.57-0.199 3.64z" inkscape:connector-curvature="0"/>
      <path id="path86" style="fill-rule:evenodd;fill:#1f2433" d="m331.8 81.331c0.453 1.516 1.773 2.344 3.961 2.477 2.133 0.109 3.758-0.477 4.879-1.758 0.961-1.149 1.347-2.199 1.16-3.16-0.106-0.668-0.574-1.442-1.399-2.321-0.773-0.933-1.414-1.652-1.922-2.16-0.906-0.879-2-1.691-3.281-2.437-1.226-0.696-1.84-0.656-1.84 0.117 0.028 1.734 0.043 2.613 0.043 2.641-0.59 1.226-1.027 2.199-1.32 2.918-0.508 1.363-0.602 2.589-0.281 3.683z" inkscape:connector-curvature="0"/>
      <path id="path88" style="fill-rule:evenodd;fill:#1f2433" d="m121.04 145.13c1.523 0.293 2.762 0.336 3.723 0.121 0.293-0.055 0.718-0.629 1.277-1.719 1.094-2.027 1.75-3.214 1.961-3.562 1.281-2.078 0.973-5.36-0.918-9.84-1.148-2.824-2.867-5.785-5.16-8.879-0.774-1.039-1.586-0.867-2.442 0.52-1.039 2.187-1.933 3.867-2.679 5.039-0.535 0.855-1.348 2.039-2.442 3.562-0.718 0.985-1.347 2.067-1.879 3.238-0.613 1.333-0.492 2.774 0.36 4.321 1.336 1.812 2.336 3.199 3 4.16 1.121 1.574 2.855 2.586 5.199 3.039z" inkscape:connector-curvature="0"/>
      <path id="path90" style="fill-rule:evenodd;fill:#1f2433" d="m100.84 154.85c0.187 0.371 0.519 0.48 1 0.32 0.453-0.16 0.855-0.508 1.199-1.043 0.961-1.359 0.883-2.652-0.238-3.879-1.172-1.254-1.973-1.105-2.399 0.442-0.402 1.492-0.254 2.878 0.438 4.16z" inkscape:connector-curvature="0"/>
      <path id="path92" style="fill-rule:evenodd;fill:#1f2433" d="m86.48 134.45c-0.773 0.403-0.867 1.481-0.281 3.243 0.613 1.867 1.656 3.093 3.121 3.679 1.469 0.613 2.492 0.625 3.082 0.039 0.477-0.426 0.758-1.347 0.84-2.758 0.078-1.253-0.722-2.414-2.402-3.48-1.707-1.121-3.16-1.363-4.36-0.723z" inkscape:connector-curvature="0"/>
      <path id="path94" style="fill-rule:evenodd;fill:#1f2433" d="m349.68 106.45c-0.774 0.403-0.868 1.481-0.278 3.243 0.614 1.867 1.653 3.093 3.118 3.679 1.468 0.613 2.492 0.625 3.082 0.039 0.48-0.426 0.757-1.347 0.839-2.758 0.082-1.253-0.718-2.414-2.402-3.48-1.703-1.121-3.16-1.363-4.359-0.723z" inkscape:connector-curvature="0"/>
      <path id="path96" style="fill-rule:evenodd;fill:#1f2433" d="m98.879 133.21c1.844 1.652 3.281 2.598 4.32 2.84 0.961 0.215 1.867-0.121 2.723-1 0.348-0.375 1.254-1.625 2.719-3.758 1.441-2.082 2.879-3.867 4.32-5.363 3.441-3.571 4.266-9.051 2.48-16.438-1.519-6.32-4.214-11.922-8.082-16.8-3.386-4.321-6.277-4.774-8.679-1.36-3.946 5.625-6.371 9.16-7.278 10.598-3.441 5.519-5.336 9.773-5.679 12.762-0.375 3.093 0.757 6.214 3.398 9.359 0.961 1.121 4.215 4.172 9.758 9.16z" inkscape:connector-curvature="0"/>
      <path id="path98" style="fill-rule:evenodd;fill:#1f2433" d="m332.48 284.41c1.84 1.653 3.282 2.602 4.321 2.84 0.961 0.215 1.867-0.121 2.719-1 0.347-0.375 1.253-1.625 2.718-3.758 1.442-2.082 2.883-3.867 4.321-5.363 3.441-3.57 4.269-9.051 2.48-16.437-1.519-6.321-4.211-11.922-8.078-16.801-3.387-4.321-6.281-4.774-8.684-1.36-3.945 5.625-6.371 9.161-7.277 10.598-3.441 5.52-5.336 9.773-5.68 12.762-0.375 3.093 0.758 6.215 3.399 9.359 0.961 1.121 4.215 4.176 9.761 9.16z" inkscape:connector-curvature="0"/>
      <path id="path100" style="fill-rule:evenodd;fill:#1f2433" d="m29.641 241.77c-2.586-0.664-5.106-0.172-7.559 1.48-0.883 0.586-3.254 2.734-7.121 6.442-1.281 1.226-2 2.226-2.16 3-0.133 0.718 0.199 1.464 1 2.238 3.011 2.133 5.668 4.347 7.961 6.64 3.144 3.145 7.746 4.493 13.8 4.039 5.172-0.398 9.692-1.785 13.559-4.16 3.387-2.105 3.613-4.293 0.68-6.558-4.668-3.625-7.746-5.973-9.239-7.039-4.773-3.387-8.414-5.414-10.921-6.082z" inkscape:connector-curvature="0"/>
      <path id="path102" style="fill-rule:evenodd;fill:#1f2433" d="m276.48 109.97c-0.507-0.477-0.945 0.176-1.32 1.961-0.371 1.785-0.183 2.867 0.563 3.242 0.851 0.398 1.437-0.121 1.757-1.563 0.348-1.464 0.012-2.679-1-3.64z" inkscape:connector-curvature="0"/>
      <path id="path104" style="fill-rule:evenodd;fill:#1f2433" d="m15.562 129.25c0.559 1.067 1.278 0.121 2.161-2.84 0.293-0.961 0.465-2.011 0.519-3.16 0-0.238 0.012-2.199 0.039-5.879 0-2.828-0.254-4.281-0.761-4.359-0.481-0.11-1 0.984-1.559 3.281-0.668 2.586-1.066 4.945-1.199 7.078-0.188 2.641 0.078 4.598 0.8 5.879z" inkscape:connector-curvature="0"/>
      <path id="path106" style="fill-rule:evenodd;fill:#1f2433" d="m23.879 169.57c0.187 0.375 0.523 0.481 1 0.321 0.453-0.16 0.855-0.508 1.203-1.039 0.957-1.36 0.863-2.657-0.281-3.883-1.145-1.254-1.934-1.106-2.36 0.441-0.402 1.52-0.253 2.907 0.438 4.16z" inkscape:connector-curvature="0"/>
      <path id="path108" style="fill-rule:evenodd;fill:#1f2433" d="m38.359 146.81c0.586 1.55 1.203 2.16 1.84 1.84 0.457-0.239 1.508-0.957 3.16-2.157 1.442-0.722 2.348-2.574 2.723-5.562 0.32-2.531 0.211-5-0.32-7.399-0.481-2.105-1.282-2.734-2.403-1.882-1.625 1.203-2.757 2.07-3.398 2.601-1.68 1.442-2.762 2.68-3.238 3.719-0.481 1.039-0.524 2.348-0.121 3.922 0.16 0.558 0.746 2.199 1.757 4.918z" inkscape:connector-curvature="0"/>
      <path id="path110" style="fill-rule:evenodd;fill:#1f2433" d="m72.961 286.33c-0.481-2.109-1.281-2.734-2.399-1.883-1.628 1.2-2.761 2.067-3.402 2.602-1.68 1.441-2.758 2.68-3.238 3.719-0.481 1.039-0.52 2.347-0.121 3.922 0.16 0.558 0.746 2.199 1.761 4.917 0.586 1.547 1.2 2.161 1.84 1.84 0.453-0.238 1.504-0.957 3.16-2.16 1.438-0.719 2.344-2.574 2.719-5.558 0.321-2.536 0.215-5-0.32-7.399z" inkscape:connector-curvature="0"/>
      <path id="path112" style="fill-rule:evenodd;fill:#1f2433" d="m16.16 134.13c-0.504-0.48-0.945 0.188-1.32 2-0.371 1.789-0.184 2.855 0.562 3.203 0.852 0.399 1.438-0.121 1.758-1.562 0.348-1.465 0.016-2.68-1-3.641z" inkscape:connector-curvature="0"/>
      <path id="path114" style="fill-rule:evenodd;fill:#1f2433" d="m46.121 116.25c0.133-3.867-0.309-8.492-1.32-13.879-0.906-4.801-1.574-7.293-2-7.48-2.856-1.949-4.906-3.254-6.16-3.922-2.161-1.145-4.172-0.774-6.039 1.121-2.106 2.187-3.989 5.016-5.641 8.48-1.441 3.039-2.559 6.282-3.359 9.719-0.586 2.403-1.016 5.895-1.282 10.481-0.32 4.851-0.558 7.695-0.718 8.519-0.403 1.867-0.133 4.215 0.8 7.043 0.957 2.906 2.227 5.117 3.797 6.637 1.363 1.308 3.363 0.562 6-2.238 1.524-1.625 3.828-4.493 6.922-8.602 1.465-1.785 3.481-4 6.039-6.637 1.84-2.457 2.828-5.535 2.961-9.242z" inkscape:connector-curvature="0"/>
      <path id="path116" style="fill-rule:evenodd;fill:#1f2433" d="m277.2 275.53c1.176-0.105 0.602-1.175-1.719-3.199-0.746-0.64-1.625-1.215-2.64-1.723-0.266-0.132-2.051-0.945-5.36-2.437-2.558-1.176-3.984-1.563-4.281-1.16-0.265 0.398 0.524 1.332 2.363 2.797 2.106 1.656 4.09 2.988 5.958 4 2.32 1.254 4.214 1.828 5.679 1.722z" inkscape:connector-curvature="0"/>
      <path id="path118" style="fill-rule:evenodd;fill:#1f2433" d="m291.84 255.37c0.613 2.106 1.281 3.586 2 4.438 0.773 0.883 1.961 1.457 3.562 1.722 0.586 0.106 2.321 0.25 5.2 0.438 1.652 0.109 2.464-0.199 2.437-0.918-0.023-0.508-0.25-1.762-0.68-3.762-0.078-1.625-1.386-3.226-3.918-4.797-2.187-1.308-4.48-2.215-6.879-2.722-2.136-0.426-3.042 0.039-2.722 1.402 0.453 2.078 0.789 3.477 1 4.199z" inkscape:connector-curvature="0"/>
      <path id="path120" style="fill-rule:evenodd;fill:#1f2433" d="m281.88 276.97c-0.637 0.269-0.211 0.933 1.281 2 1.469 1.094 2.52 1.375 3.16 0.84 0.719-0.614 0.481-1.371-0.718-2.278-1.2-0.91-2.442-1.093-3.723-0.562z" inkscape:connector-curvature="0"/>
      <path id="path122" style="fill-rule:evenodd;fill:#1f2433" d="m293.68 266.85c-0.852-2.055-2.504-5.321-4.957-9.801-1.496-3.867-2.684-6.613-3.563-8.242-1.492-2.692-3.89-4.864-7.199-6.52-3.465-1.707-7.879-3.211-13.238-4.519-4.75-1.121-7.293-1.532-7.641-1.239-2.934 1.786-4.961 3.118-6.082 4-1.918 1.493-2.398 3.481-1.438 5.961 1.118 2.825 2.918 5.703 5.399 8.637 2.16 2.563 4.641 4.922 7.441 7.082 1.946 1.492 4.957 3.32 9.039 5.481 4.266 2.265 6.747 3.652 7.438 4.16 1.551 1.093 3.801 1.812 6.762 2.16 3.039 0.32 5.574 0.078 7.601-0.723 1.758-0.719 1.906-2.863 0.438-6.437z" inkscape:connector-curvature="0"/>
      <path id="path124" style="fill-rule:evenodd;fill:#1f2433" d="m52.52 210.89c-1.2-1.735-2.547-2.199-4.04-1.399-1.414 0.774-2.105 2.024-2.078 3.758 0.024 1.387 0.387 2.695 1.078 3.922 0.536 0.984 1.188 1.785 1.961 2.398 1.332 1.145 2.454 2.079 3.36 2.801 1.679 1.305 2.734 1.895 3.16 1.758 0.371-0.105 0.293-1.117-0.238-3.039-0.668-2.293-0.989-3.734-0.961-4.32 0.105-1.653-0.641-3.614-2.242-5.879z" inkscape:connector-curvature="0"/>
      <path id="path126" style="fill-rule:evenodd;fill:#1f2433" d="m322.08 8.73c-1.359-0.375-2.734-0.399-4.121-0.082-1.094 0.242-2.039 0.656-2.84 1.242-1.465 0.957-2.668 1.758-3.598 2.398-1.734 1.254-2.589 2.11-2.562 2.559 0 0.402 0.988 0.601 2.961 0.601 2.398 0.028 3.879 0.133 4.441 0.321 1.516 0.535 3.614 0.359 6.278-0.52 2-0.668 2.816-1.84 2.441-3.519-0.348-1.547-1.348-2.547-3-3z" inkscape:connector-curvature="0"/>
      <path id="path128" style="fill-rule:evenodd;fill:#1f2433" d="m13.121 68.249c2.613 4.188 4.215 6.695 4.801 7.52 2.531 3.679 4.613 6 6.238 6.961 1.68 0.984 3.613 0.961 5.801-0.082 0.801-0.372 3.039-1.825 6.719-4.36 2.109-1.465 2.84-2.918 2.199-4.359-0.453-1.012-1.785-3.332-4-6.961-1.438-3.199-4.383-5.09-8.84-5.68-3.812-0.508-7.398-0.039-10.758 1.403-2.961 1.304-3.679 3.16-2.16 5.558z" inkscape:connector-curvature="0"/>
      <path id="path130" style="fill-rule:evenodd;fill:#1f2433" d="m1.922 85.691c-0.774 0.425-0.867 1.519-0.281 3.277 0.64 1.84 1.695 3.066 3.16 3.68 1.465 0.617 2.492 0.628 3.078 0.043 0.48-0.454 0.762-1.387 0.844-2.801 0.078-1.254-0.723-2.414-2.403-3.481-1.707-1.121-3.172-1.359-4.398-0.718z" inkscape:connector-curvature="0"/>
      <path id="path132" style="fill-rule:evenodd;fill:#1f2433" d="m344.48 27.89c1.469 0.613 2.493 0.625 3.082 0.039 0.481-0.453 0.758-1.387 0.84-2.801 0.078-1.25-0.722-2.414-2.402-3.48-1.707-1.118-3.172-1.36-4.398-0.719-0.747 0.402-0.829 1.48-0.239 3.242 0.61 1.863 1.653 3.105 3.117 3.719z" inkscape:connector-curvature="0"/>
      <path id="path134" style="fill-rule:evenodd;fill:#1f2433" d="m42.723 291.29c-0.778 0.426-0.868 1.52-0.282 3.281 0.641 1.84 1.692 3.067 3.161 3.68 1.464 0.613 2.492 0.625 3.078 0.039 0.48-0.453 0.761-1.387 0.84-2.797 0.082-1.254-0.719-2.414-2.399-3.48-1.707-1.121-3.176-1.363-4.398-0.723z" inkscape:connector-curvature="0"/>
      <path id="path136" style="fill-rule:evenodd;fill:#1f2433" d="m1.082 65.851c0.531 0.957 1.184 1.757 1.957 2.398 1.336 1.149 2.457 2.067 3.363 2.762 1.68 1.305 2.731 1.906 3.16 1.797 0.372-0.106 0.293-1.117-0.242-3.039-0.664-2.321-0.984-3.774-0.961-4.36 0.11-1.625-0.636-3.586-2.238-5.879-1.199-1.734-2.547-2.199-4.039-1.402-1.414 0.773-2.109 2.027-2.082 3.762 0.027 1.386 0.387 2.707 1.082 3.961z" inkscape:connector-curvature="0"/>
      <path id="path138" style="fill-rule:evenodd;fill:#1f2433" d="m197 122.85c2.453-2 2.441-4.547-0.039-7.641-0.883-1.121-1.734-2.133-2.559-3.039-0.429-0.48-1.707-1.84-3.84-4.082-1.55-1.652-2.601-1.586-3.16 0.199-0.109 0.375-0.402 2.602-0.882 6.68-0.266 2.187 0 4.43 0.8 6.723 0.801 2.371 1.813 3.8 3.039 4.277 1.094 0.43 2.149 0.336 3.161-0.277 0.054-0.028 1.214-0.973 3.48-2.84z" inkscape:connector-curvature="0"/>
      <path id="path140" style="fill-rule:evenodd;fill:#1f2433" d="m265.56 292.37c1.09 0.426 2.145 0.332 3.161-0.281 0.05-0.027 1.211-0.973 3.476-2.84 2.453-2 2.442-4.547-0.039-7.641-0.879-1.117-1.734-2.132-2.558-3.039-0.426-0.48-1.707-1.839-3.84-4.078-1.547-1.656-2.602-1.59-3.16 0.2-0.11 0.371-0.403 2.597-0.879 6.679-0.27 2.188 0 4.426 0.797 6.719 0.8 2.375 1.816 3.801 3.042 4.281z" inkscape:connector-curvature="0"/>
      <path id="path142" style="fill-rule:evenodd;fill:#1f2433" d="m204.4 125.65c0.852-0.317 0.907-1.278 0.16-2.879-0.75-1.547-1.761-1.84-3.042-0.879-1.305 0.984-1.442 1.972-0.399 2.957 1.012 0.937 2.106 1.203 3.281 0.801z" inkscape:connector-curvature="0"/>
      <path id="path144" style="fill-rule:evenodd;fill:#1f2433" d="m320.8 284.13c0.879-0.293 0.933-1.238 0.16-2.84-0.746-1.547-1.762-1.84-3.039-0.879-1.309 0.989-1.442 1.961-0.402 2.922 1.015 0.957 2.109 1.227 3.281 0.797z" inkscape:connector-curvature="0"/>
      <path id="path146" style="fill-rule:evenodd;fill:#1f2433" d="m197.2 292.85c0.856-0.321 0.91-1.282 0.16-2.883-0.746-1.543-1.757-1.84-3.039-0.879-1.308 0.988-1.441 1.973-0.398 2.961 1.012 0.933 2.105 1.199 3.277 0.801z" inkscape:connector-curvature="0"/>
      <path id="path148" style="fill-rule:evenodd;fill:#1f2433" d="m33.602 284.13c0.878-0.293 0.933-1.238 0.16-2.84-0.75-1.547-1.762-1.84-3.039-0.879-1.309 0.989-1.442 1.961-0.403 2.922 1.016 0.957 2.106 1.227 3.282 0.797z" inkscape:connector-curvature="0"/>
      <path id="path150" style="fill-rule:evenodd;fill:#1f2433" d="m163.84 124.93c2 2.16 5.254 3.226 9.762 3.199 2.453-0.023 5.785-0.238 10-0.637 1.89 0.051 2.066-1.414 0.519-4.402-2.055-3.945-2.973-6.508-2.762-7.68 0.375-1.972-0.906-4.332-3.839-7.082-2.641-2.48-5.118-4.051-7.438-4.719-1.977-0.585-4.293-0.679-6.961-0.281-2.988 0.426-4.801 1.348-5.441 2.762-0.719 1.625-0.465 4.508 0.761 8.641 1.305 4.347 3.106 7.746 5.399 10.199z" inkscape:connector-curvature="0"/>
      <path id="path152" style="fill-rule:evenodd;fill:#1f2433" d="m171.24 151.97c-0.082 1.84 1.934 3.269 6.039 4.281 5.172 1.281 8.332 2.414 9.481 3.399 1.785 1.546 4.144 1.843 7.078 0.882 1.629-0.507 3.949-1.359 6.961-2.562 7.441-1.41 12.308-4.613 14.601-9.598 1.946-4.215 1.774-8.347-0.523-12.402-1.891-3.387-5.25-5.559-10.078-6.52-4.692-0.933-9.895-0.547-15.602 1.16-5.039 1.497-9.41 4.856-13.117 10.083-3.066 4.32-4.68 8.078-4.84 11.277z" inkscape:connector-curvature="0"/>
      <path id="path154" style="fill-rule:evenodd;fill:#1f2433" d="m227.36 281.97c3.868 4.457 9.321 7.363 16.364 8.723 5.839 1.144 10.398 1.05 13.679-0.282 1.918-0.801 2.453-3.535 1.598-8.199-1.094-5.922-1.398-9.695-0.918-11.32 0.746-2.535-0.055-5.082-2.402-7.641-2.957-2.668-4.907-4.652-5.84-5.961-4.879-6.957-10.387-10.453-16.52-10.48-5.172-0.024-9.293 2.082-12.359 6.32-2.559 3.52-3.227 7.973-2 13.363 1.227 5.278 4.027 10.438 8.398 15.477z" inkscape:connector-curvature="0"/>
      <path id="path156" style="fill-rule:evenodd;fill:#1f2433" d="m171.72 139.65c0.398-0.399 1.453-1.426 3.156-3.079 1.523-1.574 2.297-2.64 2.32-3.199 0.028-0.48-0.773-0.695-2.398-0.64-1.946 0.05-3.145-0.028-3.602-0.239-0.719-0.347-1.543-0.429-2.476-0.242-0.75 0.16-1.657 0.52-2.723 1.082-1.68 0.879-2.438 2.332-2.277 4.36 0.132 1.917 0.863 3.117 2.199 3.597 1.094 0.403 2.211 0.387 3.359-0.039 0.934-0.348 1.746-0.879 2.442-1.601z" inkscape:connector-curvature="0"/>
      <path id="path158" style="fill-rule:evenodd;fill:#1f2433" d="m173.6 293.73c-1.68 0.906-2.442 2.359-2.282 4.359 0.133 1.922 0.868 3.121 2.2 3.602 1.093 0.398 2.214 0.386 3.359-0.043 0.933-0.344 1.75-0.879 2.441-1.598 0.403-0.402 1.453-1.426 3.16-3.082 1.52-1.543 2.293-2.598 2.321-3.16 0.027-0.477-0.774-0.703-2.399-0.68-1.976 0.055-3.175-0.027-3.601-0.238-1.199-0.586-2.934-0.309-5.199 0.84z" inkscape:connector-curvature="0"/>
      <path id="path160" style="fill-rule:evenodd;fill:#1f2433" d="m36.922 28.769c2.078 1.226 3.773 1.586 5.078 1.082 1.148-0.453 1.934-1.282 2.359-2.481 0.028-0.054 0.364-1.586 1-4.601 0.723-3.254-0.879-5.188-4.797-5.801-1.683-0.266-4.839-0.559-9.48-0.879-2.27-0.16-3.066 0.641-2.402 2.402 0.132 0.289 1.281 2.2 3.441 5.719 1.145 1.84 2.746 3.359 4.801 4.559z" inkscape:connector-curvature="0"/>
      <path id="path162" style="fill-rule:evenodd;fill:#1f2433" d="m53 19.648c0.48-0.825-0.066-1.571-1.641-2.239-1.57-0.668-2.57-0.172-3 1.481-0.453 1.679 0.043 2.519 1.481 2.519 1.414 0 2.469-0.586 3.16-1.761z" inkscape:connector-curvature="0"/>
      <path id="path164" style="fill-rule:evenodd;fill:#1f2433" d="m37.562 35.808c0.958-0.797 1.161-1.516 0.598-2.16-0.426-0.45-1.414-0.973-2.961-1.559-4.078-1.574-6.387-2.891-6.918-3.957-0.906-1.734-3.386-2.617-7.441-2.641-3.68-0.027-6.641 0.52-8.879 1.641-1.922 0.957-3.828 2.531-5.719 4.719-2.137 2.453-3.015 4.441-2.64 5.957 0.425 1.761 2.414 3.761 5.96 6 3.758 2.402 7.305 3.734 10.637 4 2.906 0.242 6.16-1.25 9.762-4.477 1.945-1.762 4.48-4.269 7.601-7.523z" inkscape:connector-curvature="0"/>
      <path id="path166" style="fill-rule:evenodd;fill:#1f2433" d="m68.121 265.01c1.149 1.84 2.746 3.359 4.801 4.558 2.078 1.227 3.773 1.586 5.078 1.079 1.148-0.454 1.934-1.278 2.359-2.477 0.028-0.055 0.364-1.59 1-4.602 0.723-3.253-0.879-5.187-4.797-5.8-1.683-0.266-4.839-0.559-9.48-0.879-2.27-0.16-3.066 0.64-2.402 2.398 0.132 0.293 1.281 2.203 3.441 5.723z" inkscape:connector-curvature="0"/>
      <path id="path168" style="fill-rule:evenodd;fill:#1f2433" d="m65.961 284.13c1.945-1.758 4.48-4.266 7.601-7.52 0.958-0.8 1.161-1.519 0.598-2.16-0.426-0.453-1.414-0.972-2.961-1.558-4.078-1.574-6.387-2.895-6.918-3.961-0.906-1.735-3.386-2.613-7.441-2.641-3.68-0.023-6.641 0.52-8.879 1.641-1.922 0.961-3.828 2.535-5.719 4.719-2.137 2.453-3.015 4.441-2.64 5.96 0.425 1.762 2.414 3.762 5.96 6 3.731 2.403 7.278 3.735 10.637 4 2.906 0.243 6.16-1.253 9.762-4.48z" inkscape:connector-curvature="0"/>
      <path id="path170" style="fill-rule:evenodd;fill:#1f2433" d="m43.961 34.21c-3.094 4.691-4.492 10.348-4.199 16.961 0.238 5.465 1.277 9.465 3.117 12 1.094 1.465 3.601 1.133 7.523-1 4.907-2.668 8.118-4.027 9.637-4.082 2.375-0.106 4.43-1.559 6.16-4.359 0.989-1.547 2.309-3.829 3.961-6.84 5.039-6.348 6.934-12.227 5.68-17.641-1.067-4.586-3.758-7.613-8.078-9.082-3.602-1.25-7.629-0.547-12.082 2.121-4.321 2.613-8.227 6.59-11.719 11.922z" inkscape:connector-curvature="0"/>
      <path id="path172" style="fill-rule:evenodd;fill:#1f2433" d="m34.68 56.37c0.508-0.906 0.816-1.879 0.922-2.922 0.078-0.586 0.277-2.105 0.597-4.558 0.242-2.293 0.215-3.653-0.078-4.082-0.266-0.399-1.039-0.012-2.32 1.16-1.547 1.469-2.559 2.269-3.039 2.402-0.801 0.211-1.508 0.735-2.121 1.559-0.481 0.613-0.973 1.519-1.481 2.719-0.801 1.894-0.504 3.546 0.879 4.96 1.281 1.36 2.602 1.762 3.961 1.2 1.121-0.477 2.016-1.293 2.68-2.438z" inkscape:connector-curvature="0"/>
      <path id="path174" style="fill-rule:evenodd;fill:#1f2433" d="m207.64 123.73c0.054 1.414 1.054 2.625 3 3.64 1.949 1.067 3.507 1.172 4.679 0.321 1.016-0.723 1.028-1.629 0.043-2.723-1.468-1.305-2.496-2.332-3.082-3.078-0.851-1.176-1.851-1.559-3-1.16-1.148 0.398-1.695 1.398-1.64 3z" inkscape:connector-curvature="0"/>
      <path id="path176" style="fill-rule:evenodd;fill:#1f2433" d="m221.8 147.33c1.547 1.891 2.558 2.918 3.039 3.078 0.32 0.082 1.722-1.426 4.199-4.519 2.695-3.309 4.734-6.215 6.121-8.719 1.387-2.453 2.067-5.215 2.039-8.281 0-1.598-0.359-4.946-1.078-10.039-0.559-3.817-1.812-7.133-3.762-9.961-1.839-2.668-4-4.508-6.48-5.52-1.867-0.773-2.973 0.348-3.317 3.36-0.589 5.414-1.07 8.628-1.441 9.64-0.613 1.653-1.359 3.906-2.242 6.762-0.586 1.863-1.266 3.625-2.039 5.277-0.879 1.817-1.028 3.801-0.442 5.961 0.961 2.719 1.653 5.055 2.082 7 0.399 1.735 1.508 3.719 3.321 5.961z" inkscape:connector-curvature="0"/>
      <path id="path178" style="fill-rule:evenodd;fill:#1f2433" d="m207 107.85c0.027 2.16 1.055 4.613 3.082 7.359 1.094 1.465 2.652 3.398 4.68 5.801 0.8 1.144 1.453 0.586 1.961-1.68 0.64-3.015 1.238-4.723 1.8-5.121 0.93-0.641 1.289-2.469 1.079-5.48-0.188-2.719-0.668-4.934-1.442-6.641-0.637-1.441-1.637-2.895-3-4.359-1.492-1.625-2.652-2.309-3.48-2.039-0.957 0.265-1.973 1.707-3.039 4.316-1.121 2.723-1.668 5.336-1.641 7.844z" inkscape:connector-curvature="0"/>
      <path id="path180" style="fill-rule:evenodd;fill:#1f2433" d="m202.68 106.57c0.828 0.989 1.519 0.747 2.082-0.718 0.32-0.883 0.812-2.403 1.48-4.559 0.641-1.414 0.641-2.734 0-3.961-0.64-1.254-1.574-1.601-2.801-1.039-1.066 0.477-1.707 2.012-1.918 4.598-0.242 2.64 0.145 4.531 1.157 5.679z" inkscape:connector-curvature="0"/>
      <path id="path182" style="fill-rule:evenodd;fill:#1f2433" d="m358.36 269.89c0.641-0.989 0.348-2.625-0.879-4.922-1.253-2.32-2.625-3.692-4.121-4.117-1.226-0.375-1.664 0.211-1.32 1.757 0.695 2.106 1.109 3.657 1.242 4.641 0.242 1.492 0.961 2.586 2.16 3.281 1.227 0.692 2.2 0.481 2.918-0.64z" inkscape:connector-curvature="0"/>
      <path id="path184" style="fill-rule:evenodd;fill:#1f2433" d="m8.879 166.25c0.91 1.149 1.976 1.242 3.203 0.281 1.25-1.015 1.773-2.562 1.559-4.64-0.188-1.922-0.707-3.453-1.559-4.602-0.426-0.558-1.496-1.547-3.203-2.957-1.277-1.066-1.891 0.293-1.84 4.078 0.082 3.785 0.695 6.399 1.84 7.84z" inkscape:connector-curvature="0"/>
      <path id="path186" style="fill-rule:evenodd;fill:#1f2433" d="m253.2 116.93c0.934 1.148 2.016 1.242 3.242 0.281 1.254-1.016 1.774-2.562 1.559-4.641-0.188-1.921-0.707-3.453-1.559-4.601-0.453-0.559-1.535-1.547-3.242-2.957-1.25-1.067-1.851 0.293-1.797 4.078 0.051 3.789 0.653 6.402 1.797 7.84z" inkscape:connector-curvature="0"/>
      <path id="path188" style="fill-rule:evenodd;fill:#1f2433" d="m236.84 232.97c0.906 1.148 1.972 1.242 3.199 0.281 1.254-1.012 1.789-2.558 1.602-4.641-0.188-1.917-0.719-3.453-1.602-4.597-0.398-0.535-1.465-1.52-3.199-2.961-1.278-1.067-1.879 0.305-1.801 4.121 0.055 3.785 0.656 6.387 1.801 7.797z" inkscape:connector-curvature="0"/>
      <path id="path190" style="fill-rule:evenodd;fill:#1f2433" d="m67.52 79.128c1.546 0.934 3.761 0.922 6.64-0.039 1.574-0.531 3.668-1.375 6.281-2.52 1.2-0.375 1.106-1.347-0.281-2.921-1.84-2.106-2.773-3.559-2.801-4.356-0.027-1.336-1.171-2.574-3.437-3.723-2.055-1.039-3.856-1.519-5.402-1.437-1.332 0.051-2.825 0.492-4.481 1.316-1.84 0.91-2.863 1.868-3.078 2.883-0.238 1.199 0.32 2.985 1.68 5.36 1.441 2.531 3.066 4.343 4.879 5.437z" inkscape:connector-curvature="0"/>
      <path id="path192" style="fill-rule:evenodd;fill:#1f2433" d="m296.52 284.93c-1.332 0.054-2.825 0.496-4.481 1.32-1.84 0.906-2.867 1.867-3.078 2.879-0.242 1.203 0.316 2.988 1.68 5.363 1.437 2.532 3.066 4.344 4.879 5.438 1.546 0.933 3.761 0.922 6.64-0.039 1.574-0.535 3.668-1.375 6.281-2.52 1.2-0.375 1.106-1.347-0.281-2.922-1.84-2.105-2.773-3.558-2.801-4.359-0.023-1.332-1.171-2.574-3.437-3.719-2.055-1.039-3.856-1.519-5.402-1.441z" inkscape:connector-curvature="0"/>
      <path id="path194" style="fill-rule:evenodd;fill:#1f2433" d="m90.801 75.089c0.773-0.773 0.761-2.188-0.039-4.242-0.641-1.653-1.762-3.614-3.36-5.879-1.226-1.707-2.496-3.027-3.8-3.961-0.536-0.371-1.723-1.024-3.563-1.957-1.066-0.559-1.73-0.149-2 1.238-0.16 0.883-0.16 2.481 0 4.801 0.188 2.293 2.27 5.547 6.242 9.758 0.824 0.91 1.758 1.457 2.801 1.644 1.305 0.239 2.547-0.23 3.719-1.402z" inkscape:connector-curvature="0"/>
      <path id="path196" style="fill-rule:evenodd;fill:#1f2433" d="m329.92 236.25c1.387-0.398 1.277-1.492-0.32-3.281-2.133-2.371-3.215-4.012-3.243-4.918-0.05-1.492-1.386-2.879-4-4.16-2.347-1.176-4.425-1.719-6.238-1.641-1.547 0.082-3.281 0.574-5.199 1.481-2.133 1.039-3.32 2.132-3.563 3.281-0.265 1.332 0.387 3.332 1.961 6 1.68 2.851 3.559 4.89 5.641 6.117 1.812 1.066 4.375 1.043 7.68-0.078 1.812-0.586 4.238-1.52 7.281-2.801z" inkscape:connector-curvature="0"/>
      <path id="path198" style="fill-rule:evenodd;fill:#1f2433" d="m341.92 234.61c0.879-0.878 0.867-2.464-0.043-4.757-0.774-1.895-2.078-4.11-3.918-6.641-1.387-1.922-2.852-3.402-4.399-4.441-0.535-0.371-1.894-1.106-4.082-2.2-1.253-0.64-2.027-0.187-2.32 1.36-0.215 1.015-0.215 2.812 0 5.402 0.133 1.68 1.176 3.797 3.121 6.36 0.907 1.171 2.266 2.718 4.078 4.64 0.961 1.039 2.043 1.652 3.243 1.84 1.519 0.266 2.96-0.254 4.32-1.563z" inkscape:connector-curvature="0"/>
      <path id="path200" style="fill-rule:evenodd;fill:#1f2433" d="m288.6 2.53c-1.2-1.789-3.762-2.535-7.68-2.242-3.281 0.215-7.176 1.11-11.684 2.68-3.437 1.176-6.183 2.668-8.238 4.48-0.746 0.641-2.266 2.348-4.559 5.121-1.308 1.575-0.75 2.973 1.68 4.2 1.602 0.8 4.52 1.679 8.758 2.64 2.75 0.641 6.43 0.094 11.043-1.64 1.945-0.719 4.785-2.028 8.519-3.918 1.891-0.934 3.133-2.27 3.719-4 0.774-2.188 0.254-4.629-1.558-7.321z" inkscape:connector-curvature="0"/>
      <path id="path202" style="fill-rule:evenodd;fill:#1f2433" d="m234.8 94.851c0.453 0.32 0.922 0.281 1.398-0.121 0.242-0.215 0.43-0.454 0.563-0.719l0.316-1.242c0.082-0.957-0.238-1.719-0.957-2.278-0.855-0.64-1.453-0.215-1.801 1.278-0.371 1.519-0.211 2.547 0.481 3.082z" inkscape:connector-curvature="0"/>
      <path id="path204" style="fill-rule:evenodd;fill:#1f2433" d="m87.961 36.128c0.453 0.32 0.918 0.281 1.398-0.117 0.243-0.188 0.43-0.414 0.563-0.68l0.32-1.242c0.078-0.961-0.242-1.719-0.961-2.281-0.855-0.641-1.453-0.211-1.801 1.281-0.375 1.492-0.214 2.508 0.481 3.039z" inkscape:connector-curvature="0"/>
      <path id="path206" style="fill-rule:evenodd;fill:#1f2433" d="m157.6 166.25c0.48 0.32 0.945 0.281 1.398-0.121 0.242-0.184 0.426-0.414 0.562-0.68l0.36-1.238c0.078-0.961-0.254-1.719-1-2.281-0.828-0.664-1.426-0.238-1.801 1.281-0.375 1.492-0.215 2.504 0.481 3.039z" inkscape:connector-curvature="0"/>
      <path id="path208" style="fill-rule:evenodd;fill:#1f2433" d="m261 94.53c2.027 0.532 3-0.375 2.922-2.722-0.082-1.813-0.817-3.731-2.199-5.758-1.231-1.813-1.778-3.016-1.645-3.602 0.215-0.851 0.027-2.117-0.558-3.8-0.348-1.04-1.094-3.067-2.239-6.079-0.933-2.746-1.972-4.586-3.121-5.519-1.359-1.094-3.293-1.387-5.801-0.879-0.933 0.184-1.398 1.785-1.398 4.797 0.187 3.469 0.254 5.723 0.199 6.762-0.051 1.304 0.918 3.304 2.918 6 1.121 1.519 2.934 3.773 5.442 6.761 1.761 2.211 3.589 3.559 5.48 4.039z" inkscape:connector-curvature="0"/>
      <path id="path210" style="fill-rule:evenodd;fill:#1f2433" d="m278.36 73.288c0.536-0.371 0.121-1.691-1.238-3.957-1.707-2.59-2.785-4.281-3.242-5.082-0.559-1.016-2.106-2.293-4.641-3.84-3.117-1.761-5.343-3.015-6.679-3.761-2.161-1.25-3.973-1.84-5.438-1.758-1.574 0.078-1.801 1-0.683 2.758 0.882 1.359 2.242 2.64 4.082 3.843 1.652 1.067 2.558 1.84 2.718 2.317 0.242 0.695 0.934 1.613 2.082 2.761 0.719 0.692 2.145 2.051 4.282 4.079 1.89 1.867 3.41 3 4.558 3.402 1.387 0.508 2.789 0.254 4.199-0.762z" inkscape:connector-curvature="0"/>
      <path id="path212" style="fill-rule:evenodd;fill:#1f2433" d="m272.4 108.53c1.653 0.774 3.2-0.054 4.637-2.48 1.414-2.375 2.188-5.293 2.32-8.762 0.188-5.094-2.226-11.519-7.238-19.281-1.226-1.918-2.883-3.68-4.961-5.277-2.32-1.762-3.508-2.684-3.558-2.762-1.094-1.36-1.79-1.238-2.082 0.359-0.239 1.414-0.145 3.336 0.281 5.762 0.32 2.453 0.574 4.172 0.761 5.16 0.317 1.652 1.012 3.145 2.079 4.481 1.171 1.437 1.933 3.023 2.281 4.757 0.215 1.094 0.32 2.934 0.32 5.52 0 2.562 0.36 4.934 1.078 7.121 0.934 2.75 2.293 4.547 4.082 5.402z" inkscape:connector-curvature="0"/>
      <path id="path214" style="fill-rule:evenodd;fill:#1f2433" d="m48.922 99.288c1.277 2.242 2.598 3.227 3.957 2.961 0.777-0.133 1.844-0.918 3.203-2.359 1.305-1.36 2.25-2.746 2.84-4.16 0.906-2.161 1.32-4.907 1.238-8.239-0.078-3.386-0.453-6.093-1.121-8.121-0.449-1.359-1.227-2.789-2.316-4.281-0.778-1.094-1.789-1.625-3.043-1.598-0.664 0-1.934 0.266-3.801 0.797-1.438 0.426-2.613 1.133-3.52 2.121-0.957 1.067-1.359 2.188-1.199 3.36 0.16 1.121 0.121 2.453-0.121 4-0.184 1.308-0.477 2.547-0.879 3.718-0.265 0.883 0.281 2.801 1.641 5.762 0.879 1.922 1.922 3.934 3.121 6.039z" inkscape:connector-curvature="0"/>
      <path id="path216" style="fill-rule:evenodd;fill:#1f2433" d="m139.08 162.21c1.277 2.238 2.598 3.227 3.957 2.961 0.773-0.137 1.84-0.922 3.203-2.363 1.305-1.36 2.254-2.746 2.84-4.16 0.906-2.157 1.32-4.907 1.238-8.239-0.078-3.386-0.441-6.093-1.078-8.117-0.453-1.336-1.226-2.762-2.32-4.281-0.801-1.094-1.828-1.629-3.082-1.602-0.641 0-1.906 0.266-3.801 0.801-1.437 0.426-2.613 1.133-3.519 2.121-0.958 1.067-1.36 2.184-1.2 3.36 0.16 1.117 0.121 2.453-0.121 4-0.183 1.304-0.476 2.546-0.879 3.718-0.265 0.879 0.282 2.801 1.641 5.758 0.879 1.922 1.918 3.938 3.121 6.043z" inkscape:connector-curvature="0"/>
      <path id="path218" style="fill-rule:evenodd;fill:#1f2433" d="m286.44 84.409c0.774 0.239 1.438-0.039 2-0.84 0.692-0.906 0.961-2.253 0.801-4.039-0.215-2.695-1.68-5.734-4.402-9.121-0.559-0.691-1.028 0-1.399 2.082-0.347 1.918-0.48 4.133-0.402 6.641 0.082 2.023 0.508 3.437 1.281 4.238 0.348 0.371 1.055 0.719 2.121 1.039z" inkscape:connector-curvature="0"/>
      <path id="path220" style="fill-rule:evenodd;fill:#1f2433" d="m220.2 84.409c0.774 0.239 1.442-0.039 2-0.84 0.668-0.906 0.922-2.253 0.762-4.039-0.238-2.828-1.707-5.867-4.399-9.121-0.535-0.691-0.988 0-1.363 2.082-0.371 1.946-0.519 4.157-0.437 6.641 0.078 2.023 0.504 3.437 1.277 4.238 0.375 0.371 1.094 0.719 2.16 1.039z" inkscape:connector-curvature="0"/>
      <path id="path222" style="fill-rule:evenodd;fill:#1f2433" d="m227.48 211.13c0.774 1.547 1.719 1.906 2.84 1.082 1.762-1.359 3.203-2 4.321-1.922 1.761 0.137 3.027-2.16 3.8-6.879 0.133-0.828 0.481-4.625 1.039-11.398 0.321-3.817 0.293-7.602-0.078-11.363-0.48-4.532-1.363-6.051-2.64-4.559-5.547 6.48-9.75 12-12.602 16.559-1.598 2.562-1.773 5.855-0.519 9.882 0.453 1.465 1.734 4.332 3.839 8.598z" inkscape:connector-curvature="0"/>
      <path id="path224" style="fill-rule:evenodd;fill:#1f2433" d="m177.72 243.41c0.824 0.375 1.211-0.32 1.156-2.078-0.024-0.59-0.184-1.176-0.477-1.762-0.082-0.187-0.668-1.187-1.761-3-0.829-1.441-1.493-2.121-2-2.039-0.453 0.106-0.602 0.825-0.442 2.161 0.16 1.519 0.496 2.839 1 3.957 0.641 1.414 1.481 2.335 2.524 2.761z" inkscape:connector-curvature="0"/>
      <path id="path226" style="fill-rule:evenodd;fill:#1f2433" d="m174.08 231.33c0.559 0.238 0.863-0.027 0.918-0.801 0.027-0.773-0.305-1.441-1-2-0.746-0.613-1.094-0.375-1.039 0.719s0.426 1.785 1.121 2.082z" inkscape:connector-curvature="0"/>
      <path id="path228" style="fill-rule:evenodd;fill:#1f2433" d="m147.6 224.49c2.933 1.918 5.293 2.559 7.078 1.918 1.015-0.371 1.441-2.695 1.281-6.961-0.215-5.332-0.149-8.679 0.199-10.039 0.535-2.105 0.266-4.48-0.801-7.121-0.558-1.437-1.437-3.48-2.636-6.117-2.11-6.906-4.735-10.855-7.883-11.84-2.641-0.855-4.879 0.332-6.719 3.559-1.519 2.691-2.121 6.492-1.801 11.398 0.321 4.828 1.453 9.801 3.403 14.922 1.703 4.531 4.332 7.961 7.879 10.281z" inkscape:connector-curvature="0"/>
      <path id="path230" style="fill-rule:evenodd;fill:#1f2433" d="m208.12 238.73c2.481-0.801 4.039-2.215 4.68-4.239 0.535-1.734 0.347-3.386-0.559-4.961-0.586-1.015-1.773-2.8-3.562-5.359-2.371-3.414-4.012-5.801-4.918-7.16-2.215-3.363-3.746-5.453-4.602-6.281-1.758-1.707-4.144-2.856-7.16-3.442-4-0.746-7.344-0.984-10.039-0.719-3.387 0.321-5.387 1.454-6 3.399-0.481 1.547 0 4.043 1.441 7.48 1.735 4.188 2.68 7.043 2.84 8.563 0.238 2.347 1.106 4.347 2.598 6 0.933 1.012 2.683 2.785 5.242 5.32 1.785 2.024 5.199 2.985 10.242 2.879 3.703-0.082 6.969-0.574 9.797-1.48z" inkscape:connector-curvature="0"/>
      <path id="path232" style="fill-rule:evenodd;fill:#1f2433" d="m223.64 220.33c0.507-1.683 0.027-3.457-1.442-5.32-1.41-1.817-2.84-3.227-4.277-4.242-1.574-1.094-3.508-1.973-5.801-2.641-2.453-0.879-3.906-1.32-4.359-1.32-0.535-0.024-0.817 0.75-0.84 2.32-0.027 1.895 1.453 4.773 4.437 8.641 3.121 4.027 5.614 5.933 7.481 5.722 2.64-0.32 4.242-1.375 4.801-3.16z" inkscape:connector-curvature="0"/>
      <path id="path234" style="fill-rule:evenodd;fill:#1f2433" d="m349.12 240.65c-3.094-1.52-4.933-2.332-5.519-2.438-0.641-0.133-0.856 0.691-0.641 2.481 0.266 2.21 2.519 5.867 6.762 10.957 4.425 5.335 7.757 8.066 10 8.203 3.144 0.211 4.918-0.668 5.316-2.641 0.348-1.812-0.504-3.961-2.559-6.441-2.027-2.399-3.988-4.344-5.878-5.84-2.082-1.598-4.575-3.028-7.481-4.281z" inkscape:connector-curvature="0"/>
      <path id="path236" style="fill-rule:evenodd;fill:#1f2433" d="m170.32 197.93c1.469 1.336 2.828 1.972 4.082 1.922 1.571-0.082 3.371-0.403 5.399-0.961 2.398-0.641 3.922-1.36 4.558-2.16 0.719-0.856 0.188-2.426-1.597-4.719-1.52-1.973-3.414-3.828-5.68-5.563-1.707-1.277-4.027-2.172-6.961-2.679-1.094-0.188-3.242-0.371-6.441-0.559-1.414-0.082-1.598 1.121-0.559 3.598 0.535 1.254 1.691 3.402 3.481 6.441 1.171 1.945 2.414 3.508 3.718 4.68z" inkscape:connector-curvature="0"/>
      <path id="path238" style="fill-rule:evenodd;fill:#1f2433" d="m213.68 197.09c2.215 0.187 3.668-0.441 4.359-1.879 0.402-0.852 0.602-2.387 0.602-4.602 0-2.105-0.254-3.894-0.762-5.359-0.77-2.238-2.211-4.387-4.317-6.441-2.16-2.106-4.066-3.477-5.722-4.117-1.117-0.454-2.492-0.629-4.117-0.52-1.2 0.078-2.188 0.719-2.961 1.918-0.426 0.641-1.067 2.027-1.918 4.16-0.668 1.652-0.989 3.227-0.961 4.719 0.055 1.601 0.492 2.707 1.32 3.32 0.801 0.563 1.598 1.453 2.399 2.68 0.695 0.988 1.281 2.043 1.761 3.16 0.371 0.828 1.907 1.535 4.598 2.121 1.894 0.426 3.801 0.707 5.719 0.84z" inkscape:connector-curvature="0"/>
      <path id="path240" style="fill-rule:evenodd;fill:#1f2433" d="m91.281 26.808c2.215 0.187 3.664-0.438 4.36-1.879 0.398-0.852 0.601-2.387 0.601-4.598 0-2.109-0.254-3.894-0.762-5.363-0.773-2.238-2.214-4.387-4.32-6.438-2.16-2.109-4.066-3.48-5.719-4.121-1.121-0.453-2.496-0.625-4.121-0.519-1.199 0.082-2.187 0.718-2.961 1.918-0.425 0.64-1.066 2.027-1.918 4.16-0.668 1.656-0.988 3.226-0.961 4.723 0.055 1.597 0.493 2.707 1.321 3.316 0.801 0.562 1.601 1.453 2.398 2.684 0.696 0.984 1.281 2.039 1.762 3.156 0.371 0.828 1.906 1.535 4.601 2.121 1.891 0.43 3.797 0.707 5.719 0.84z" inkscape:connector-curvature="0"/>
      <path id="path242" style="fill-rule:evenodd;fill:#1f2433" d="m190.08 188.65c-0.773 0.082-0.641 0.96 0.398 2.64 0.989 1.574 2.282 3.121 3.883 4.641 1.305 1.226 2.449 1.719 3.438 1.48 0.453-0.133 1.121-0.601 2-1.398 0.64-0.586 0.894-1.414 0.761-2.481-0.132-1.226-0.8-2.32-2-3.281-1.867-1.547-4.695-2.078-8.48-1.601z" inkscape:connector-curvature="0"/>
      <path id="path244" style="fill-rule:evenodd;fill:#1f2433" d="m204.48 210.65c0.508-0.211 0.829-0.586 0.961-1.118 0.106-0.453 0.039-0.882-0.199-1.281-0.215-0.348-0.64-0.586-1.281-0.719-0.695-0.132-1.281-0.066-1.762 0.2-0.531 0.293-0.465 0.918 0.203 1.878 0.664 0.961 1.36 1.309 2.078 1.04z" inkscape:connector-curvature="0"/>
      <path id="path246" style="fill-rule:evenodd;fill:#1f2433" d="m325.88 127.73c1.894 1.945 3.844 1.492 5.844-1.36 1.918-2.75 2.597-5.082 2.039-7-0.508-1.789-1.614-3.707-3.321-5.762-1.867-2.238-3.613-3.492-5.238-3.757-1.336-0.243-2.121 0.652-2.363 2.679-0.344 2.828-0.719 4.52-1.117 5.078-0.801 1.122-0.508 2.95 0.879 5.485 0.984 1.863 2.078 3.41 3.277 4.637z" inkscape:connector-curvature="0"/>
      <path id="path248" style="fill-rule:evenodd;fill:#1f2433" d="m138.16 177.33c0.586 0.293 1.387-0.32 2.402-1.84 1.012-1.547 1.52-2.949 1.52-4.203 0-1.066-0.426-1.426-1.281-1.078-1.039 0.613-1.762 0.973-2.16 1.078-0.668 0.16-1.145 1.082-1.442 2.762-0.265 1.734 0.055 2.824 0.961 3.281z" inkscape:connector-curvature="0"/>
      <path id="path250" style="fill-rule:evenodd;fill:#1f2433" d="m301.08 235.53c0.586 0.293 1.387-0.32 2.398-1.839 1.016-1.52 1.52-2.922 1.52-4.2 0-1.066-0.438-1.429-1.32-1.082-1.039 0.614-1.758 0.973-2.157 1.082-0.668 0.157-1.136 1.078-1.402 2.758-0.266 1.734 0.055 2.828 0.961 3.281z" inkscape:connector-curvature="0"/>
      <path id="path252" style="fill-rule:evenodd;fill:#1f2433" d="m328.28 77.21c0.586 0.293 1.387-0.32 2.399-1.84 1.015-1.547 1.519-2.961 1.519-4.242 0-1.066-0.437-1.426-1.32-1.078-1.039 0.613-1.758 0.973-2.156 1.078-0.668 0.16-1.133 1.082-1.403 2.762-0.265 1.758 0.055 2.867 0.961 3.32z" inkscape:connector-curvature="0"/>
      <path id="path254" style="fill-rule:evenodd;fill:#1f2433" d="m95.641 88.808c1.226-1.547 0.961-2.852-0.801-3.918-1.012-0.614-2.84-1.399-5.481-2.36-1.414-0.668-2.812-0.121-4.199 1.641-0.293 0.371-1.547 2.453-3.758 6.238-1.574 2.723-2.601 4.789-3.082 6.199-0.664 1.922-0.664 3.508 0 4.762 0.375 0.746 1.282 0.961 2.719 0.641 1.441-0.32 2.668-1.028 3.684-2.121 0.425-0.453 2.132-2.133 5.117-5.039 2.746-2.641 4.68-4.657 5.801-6.043z" inkscape:connector-curvature="0"/>
      <path id="path256" style="fill-rule:evenodd;fill:#1f2433" d="m319.6 192.85c0.507 0.64 1.597 0.547 3.277-0.282 1.734-0.855 2.496-1.812 2.281-2.878-0.183-0.961-0.707-1.508-1.558-1.641-1.04 0.027-1.84-0.016-2.399-0.121-0.773-0.133-1.363 0.496-1.762 1.879-0.402 1.386-0.347 2.402 0.161 3.043z" inkscape:connector-curvature="0"/>
      <path id="path258" style="fill-rule:evenodd;fill:#1f2433" d="m68.16 102.85c0.828 0.265 1.813 0.132 2.961-0.403 1.172-0.558 1.813-1.199 1.918-1.918 0.188-1.066-0.812-3.949-3-8.64-0.664-1.442-1.703-1.375-3.117 0.199-1.547 2.16-2.602 3.535-3.16 4.121-0.801 0.852-0.735 2.012 0.199 3.481 0.961 1.437 2.359 2.492 4.199 3.16z" inkscape:connector-curvature="0"/>
      <path id="path260" style="fill-rule:evenodd;fill:#1f2433" d="m210.56 269.25c0.825 0.266 1.813 0.133 2.958-0.398 1.175-0.563 1.816-1.203 1.921-1.922 0.184-1.067-0.816-3.946-3-8.641-0.668-1.437-1.707-1.371-3.121 0.203-1.547 2.157-2.597 3.532-3.16 4.117-0.801 0.856-0.734 2.016 0.199 3.481 0.961 1.441 2.364 2.492 4.203 3.16z" inkscape:connector-curvature="0"/>
      <path id="path262" style="fill-rule:evenodd;fill:#1f2433" d="m96.16 252.05c-1.84-2.106-2.773-3.559-2.801-4.359-0.027-1.336-1.171-2.575-3.437-3.723-2.055-1.039-3.856-1.52-5.402-1.438-1.332 0.051-2.825 0.493-4.481 1.321-1.84 0.906-2.863 1.863-3.078 2.879-0.238 1.199 0.32 2.984 1.68 5.359 1.441 2.535 3.066 4.348 4.879 5.441 1.546 0.934 3.761 0.918 6.64-0.039 1.574-0.535 3.668-1.375 6.281-2.523 1.2-0.371 1.106-1.344-0.281-2.918z" inkscape:connector-curvature="0"/>
      <path id="path264" style="fill-rule:evenodd;fill:#1f2433" d="m96.039 237.45c-1.066-0.558-1.73-0.144-2 1.243-0.16 0.878-0.16 2.48 0 4.8 0.188 2.293 2.27 5.547 6.242 9.758 0.824 0.906 1.758 1.453 2.801 1.641 1.305 0.238 2.547-0.227 3.719-1.399 0.773-0.777 0.761-2.187-0.039-4.242-0.641-1.652-1.762-3.613-3.36-5.879-1.226-1.707-2.496-3.027-3.8-3.961-0.536-0.375-1.723-1.027-3.563-1.961z" inkscape:connector-curvature="0"/>
      <path id="path266" style="fill-rule:evenodd;fill:#1f2433" d="m107.32 267.69c0.403 0.718 1.309 0.933 2.719 0.64 1.469-0.32 2.695-1.027 3.684-2.121 0.343-0.375 2.066-2.055 5.156-5.039 2.723-2.641 4.656-4.668 5.801-6.082 1.226-1.52 0.961-2.813-0.801-3.879-2.559-1.066-4.383-1.852-5.477-2.359-1.414-0.668-2.816-0.121-4.203 1.64-0.265 0.317-1.531 2.399-3.797 6.239-1.574 2.695-2.601 4.761-3.082 6.199-0.64 1.922-0.64 3.508 0 4.762z" inkscape:connector-curvature="0"/>
      <path id="path268" style="fill-rule:evenodd;fill:#1f2433" d="m345.52 152.57c0.375 0.747 1.281 0.961 2.718 0.641 1.442-0.32 2.668-1.027 3.684-2.121 0.426-0.453 2.133-2.133 5.117-5.039 2.75-2.641 4.684-4.652 5.801-6.039 1.226-1.547 0.961-2.856-0.801-3.922-2.559-1.039-4.387-1.824-5.48-2.359-1.414-0.668-2.813-0.122-4.2 1.64-0.293 0.375-1.547 2.453-3.757 6.238-1.575 2.723-2.602 4.79-3.082 6.204-0.665 1.918-0.665 3.504 0 4.757z" inkscape:connector-curvature="0"/>
      <path id="path270" style="fill-rule:evenodd;fill:#1f2433" d="m84.16 281.25c0.828 0.266 1.813 0.133 2.961-0.398 1.172-0.563 1.813-1.203 1.918-1.922 0.188-1.067-0.812-3.946-3-8.641-0.664-1.437-1.703-1.371-3.117 0.203-1.547 2.157-2.602 3.532-3.16 4.117-0.801 0.856-0.735 2.016 0.199 3.481 0.961 1.441 2.359 2.492 4.199 3.16z" inkscape:connector-curvature="0"/>
      <path id="path272" style="fill-rule:evenodd;fill:#1f2433" d="m328.68 205.65c0.828 0.296 1.816 0.175 2.961-0.36 1.171-0.558 1.812-1.199 1.921-1.918 0.184-1.121-0.828-4-3.042-8.64-0.665-1.442-1.708-1.375-3.118 0.199-1.523 2.16-2.562 3.535-3.121 4.121-0.801 0.851-0.734 2 0.199 3.441 0.961 1.438 2.36 2.492 4.2 3.157z" inkscape:connector-curvature="0"/>
      <path id="path274" style="fill-rule:evenodd;fill:#1f2433" d="m141.6 122.33c0.187 0.344 0.894 0.449 2.121 0.317 0.613-0.079 1.211-0.184 1.797-0.317l-0.118-2.281c-0.16-1.68-0.429-2.949-0.8-3.801-0.348-0.773-0.829-0.851-1.442-0.242-1.012 1.043-1.613 1.601-1.801 1.684-0.613 0.265-0.839 0.945-0.679 2.039 0.132 0.851 0.441 1.718 0.922 2.601z" inkscape:connector-curvature="0"/>
      <path id="path276" style="fill-rule:evenodd;fill:#1f2433" d="m55.402 298.21c0.321 0.559 1.637 0.559 3.957 0 0-2.695-0.32-4.719-0.957-6.082-0.347-0.773-0.828-0.852-1.441-0.238-1.016 1.039-1.613 1.601-1.801 1.679-0.613 0.266-0.828 0.946-0.64 2.039 0.136 0.856 0.425 1.723 0.882 2.602z" inkscape:connector-curvature="0"/>
      <path id="path278" style="fill-rule:evenodd;fill:#1f2433" d="m161.64 156.81c-0.614 0.269-0.829 0.949-0.641 2.043 0.133 0.851 0.426 1.718 0.879 2.597 0.215 0.348 0.933 0.453 2.16 0.321 0.617-0.078 1.215-0.188 1.801-0.321 0-2.691-0.32-4.718-0.961-6.078-0.344-0.773-0.824-0.855-1.438-0.242-1.015 1.043-1.613 1.602-1.8 1.68z" inkscape:connector-curvature="0"/>
      <path id="path280" style="fill-rule:evenodd;fill:#1f2433" d="m1.32 230.97c0.215 0.348 0.934 0.457 2.16 0.32 0.614-0.078 1.215-0.183 1.801-0.32l-0.121-2.28c-0.16-1.68-0.426-2.95-0.801-3.801-0.371-0.801-0.851-0.879-1.437-0.242-1.043 1.066-1.641 1.64-1.801 1.722-0.613 0.238-0.84 0.918-0.68 2.039 0.133 0.856 0.426 1.707 0.879 2.559z" inkscape:connector-curvature="0"/>
      <path id="path282" style="fill-rule:evenodd;fill:#1f2433" d="m233.6 27.089c1.199 0.48 2.425 0.668 3.679 0.559 0.692-0.051 2.547-0.118 5.559-0.2 2.75-0.187 4.348-0.531 4.801-1.039 0.398-0.426-0.239-1.32-1.918-2.679-2.028-1.653-3.176-2.774-3.442-3.36-0.453-0.961-1.226-1.762-2.32-2.402-0.879-0.481-2.066-0.918-3.559-1.32-2.402-0.614-4.293 0.121-5.679 2.199-1.336 1.949-1.52 3.734-0.563 5.363 0.801 1.332 1.949 2.293 3.442 2.879z" inkscape:connector-curvature="0"/>
      <path id="path284" style="fill-rule:evenodd;fill:#1f2433" d="m202.6 40.929c0.21 0.719 0.718 1.094 1.519 1.121 0.399 0 0.774-0.067 1.117-0.203l1.282-0.918c0.8-0.824 1.054-1.824 0.761-3-0.347-1.332-1.281-1.438-2.801-0.321-1.546 1.122-2.171 2.227-1.878 3.321z" inkscape:connector-curvature="0"/>
      <path id="path286" style="fill-rule:evenodd;fill:#1f2433" d="m195.08 27.89c-0.402 3.281 0.172 5.371 1.719 6.281 0.906 0.531 2.601 0.719 5.078 0.559 2.375-0.188 4.387-0.696 6.043-1.52 2.558-1.309 5.078-3.586 7.558-6.84 2.536-3.308 4.243-6.215 5.122-8.722 0.586-1.68 0.906-3.719 0.96-6.118 0.024-1.734-0.589-3.132-1.839-4.199-0.696-0.586-2.188-1.426-4.485-2.519-1.785-0.856-3.515-1.204-5.199-1.043-1.785 0.187-3.051 0.922-3.801 2.203-0.691 1.199-1.758 2.437-3.199 3.719-1.172 1.093-2.414 2.039-3.719 2.839-0.961 0.586-1.894 2.895-2.8 6.918-0.614 2.774-1.094 5.586-1.438 8.442z" inkscape:connector-curvature="0"/>
      <path id="path288" style="fill-rule:evenodd;fill:#1f2433" d="m182.52 41.608c0.402 0.801 1.679 0.907 3.839 0.321 2.215-0.559 3.817-1.453 4.801-2.68 0.828-1.039 0.668-1.773-0.48-2.199-1.547-0.32-2.559-0.602-3.039-0.84-0.801-0.43-1.973 0.051-3.52 1.438-1.629 1.414-2.16 2.734-1.601 3.96z" inkscape:connector-curvature="0"/>
      <path id="path290" style="fill-rule:evenodd;fill:#1f2433" d="m210.64 40.011c-0.079 0.504 0.558 1.238 1.921 2.199l2.04 1.238 1.64-2.277c1.145-1.762 1.84-3.215 2.078-4.363 0.242-1.067-0.183-1.559-1.281-1.477-1.84 0.133-2.879 0.16-3.117 0.078-0.828-0.293-1.574 0.16-2.242 1.36-0.504 0.933-0.852 2.015-1.039 3.242z" inkscape:connector-curvature="0"/>
      <path id="path292" style="fill-rule:evenodd;fill:#1f2433" d="m133.16 148.93 0.242-1.16c0.133-0.852 0.051-1.52-0.242-2-0.398-0.664-0.652-0.426-0.758 0.722-0.136 1.09 0.118 1.907 0.758 2.438z" inkscape:connector-curvature="0"/>
      <path id="path294" style="fill-rule:evenodd;fill:#1f2433" d="m323.92 144.53c-0.082 2.692-0.121 4.664-0.121 5.918 0.027 2.188 0.293 3.586 0.801 4.2 0.64 0.773 1.984 0.906 4.039 0.402 2.293-0.563 3.652-1.856 4.082-3.883 0.371-1.918 0.066-3.652-0.922-5.199-1.465-1.813-2.625-3.348-3.481-4.598-1.199-1.762-2.254-2.176-3.16-1.242-0.824 0.855-1.238 2.32-1.238 4.402z" inkscape:connector-curvature="0"/>
      <path id="path296" style="fill-rule:evenodd;fill:#1f2433" d="m339.92 128.77c1.066 0 1.707-0.786 1.918-2.36 0.238-1.574-0.16-2.426-1.199-2.558-1.121-0.16-1.879 0.625-2.282 2.359-0.398 1.707 0.121 2.559 1.563 2.559z" inkscape:connector-curvature="0"/>
      <path id="path298" style="fill-rule:evenodd;fill:#1f2433" d="m174.88 89.011c0.187-1.016-0.547-2.363-2.199-4.043-1.707-1.731-2.918-2.145-3.641-1.238-0.637 0.8-0.758 1.761-0.359 2.878 0.64 1.336 1.082 2.375 1.32 3.122 0.348 1.066 1.199 1.464 2.562 1.199 1.333-0.266 2.106-0.906 2.317-1.918z" inkscape:connector-curvature="0"/>
      <path id="path300" style="fill-rule:evenodd;fill:#1f2433" d="m188.12 54.409c-0.187-0.961-0.574-1.894-1.16-2.801-0.773-1.25-2.469-0.558-5.082 2.083-2.637 2.64-3.824 4.785-3.559 6.441 0.453 2.773 2.735 2.918 6.84 0.437 1.176-0.718 2.016-1.597 2.52-2.64 0.562-1.067 0.707-2.238 0.441-3.52z" inkscape:connector-curvature="0"/>
      <path id="path302" style="fill-rule:evenodd;fill:#1f2433" d="m198.52 279.21c-0.184-0.961-0.575-1.894-1.161-2.801-0.773-1.254-2.464-0.558-5.078 2.082-2.64 2.637-3.828 4.785-3.558 6.438 0.449 2.773 2.73 2.922 6.839 0.441 1.172-0.722 2.012-1.601 2.516-2.64 0.563-1.067 0.711-2.239 0.442-3.52z" inkscape:connector-curvature="0"/>
      <path id="path304" style="fill-rule:evenodd;fill:#1f2433" d="m61.082 5.691c-2.641 2.64-3.828 4.785-3.562 6.437 0.453 2.773 2.734 2.922 6.839 0.441 1.176-0.718 2.016-1.601 2.52-2.64 0.562-1.067 0.707-2.238 0.441-3.52-0.187-0.961-0.574-1.894-1.16-2.801-0.773-1.253-2.465-0.558-5.078 2.083z" inkscape:connector-curvature="0"/>
      <path id="path306" style="fill-rule:evenodd;fill:#1f2433" d="m205.52 88.37c1.386-0.32 2.226-0.547 2.519-0.679 0.856-0.375 1.574-1 2.16-1.883 1.813-2.719 3.028-6.133 3.641-10.239 0.746-4.906-0.051-8.281-2.399-10.121-3.707-2.879-6.082-4.586-7.121-5.117-2.425-1.254-5.16-1.629-8.199-1.121-3.734 0.586-7.547 2.32-11.441 5.199-3.868 2.852-6.934 6.16-9.2 9.922-1.972 3.227-2.359 6.266-1.16 9.117 1.012 2.481 3.078 4.602 6.2 6.36 2.8 1.601 5.878 2.64 9.242 3.121 3.304 0.453 5.929 0.238 7.879-0.641 0.613-0.293 1.773-0.945 3.48-1.961 1.387-0.851 2.547-1.426 3.481-1.719l0.918-0.238z" inkscape:connector-curvature="0"/>
      <path id="path308" style="fill-rule:evenodd;fill:#1f2433" d="m137.48 135.33 1.442-0.922c0.957-0.718 1.492-1.375 1.598-1.961 0.082-0.64-0.2-0.945-0.84-0.918-0.399 0.028-1.211 0.239-2.438 0.641-0.828 0.238-1.137 0.801-0.922 1.68 0.215 0.824 0.602 1.32 1.16 1.48z" inkscape:connector-curvature="0"/>
      <path id="path310" style="fill-rule:evenodd;fill:#1f2433" d="m308.16 204.49c-0.531 0.586-0.508 1.957 0.082 4.117 0.613 2.161 1.36 3.133 2.238 2.922 0.774-0.187 1.227-0.8 1.36-1.839 0.082-0.586 0.148-1.586 0.199-3 0.137-0.961-0.344-1.735-1.437-2.321-1.094-0.535-1.907-0.496-2.442 0.121z" inkscape:connector-curvature="0"/>
      <path id="path312" style="fill-rule:evenodd;fill:#1f2433" d="m262.16 214.25c3.121-1.254 5.266-3.133 6.442-5.641 1.011-2.132 0.757-4.332-0.762-6.597-0.961-1.254-1.692-2.215-2.199-2.883-0.907-1.199-1.547-2.266-1.918-3.199-0.856-2.133-1.707-3.653-2.563-4.559-0.531-0.586-1.305-1.094-2.32-1.519-0.637-0.27-1.774-0.282-3.399-0.043-3.253 0.457-4.984 0.695-5.199 0.722-1.734 0.161-2.84 0.973-3.32 2.438-0.426 2.48-0.828 4.762-1.199 6.84-0.453 2.562 0.215 5.64 2 9.242 1.867 3.758 3.957 5.84 6.281 6.238 2.637 0.453 5.355 0.11 8.156-1.039z" inkscape:connector-curvature="0"/>
      <path id="path314" style="fill-rule:evenodd;fill:#1f2433" d="m241.6 218.05c-0.266 0.984-0.215 2.215 0.16 3.68 0.398 1.464 0.89 2.293 1.48 2.48 0.852 0.266 3.211-0.852 7.078-3.359 1.176-0.774 1.16-2.082-0.039-3.922-1.652-2-2.707-3.348-3.16-4.039-0.668-1.067-1.598-1.055-2.801 0.039-1.199 1.121-2.105 2.828-2.718 5.121z" inkscape:connector-curvature="0"/>
      <path id="path316" style="fill-rule:evenodd;fill:#1f2433" d="m245.44 176.09c0.051 1.547 0.668 2.867 1.84 3.961 1.149 1.039 2.321 1.453 3.52 1.238 1.387-0.265 2.414-0.586 3.078-0.957 0.933-0.508 1.734-1.336 2.402-2.48 0.614-1.016 0.266-1.801-1.039-2.36-1.867-0.59-3.254-1.148-4.16-1.683-1.469-0.852-2.762-1.106-3.883-0.758-1.226 0.375-1.812 1.387-1.758 3.039z" inkscape:connector-curvature="0"/>
      <path id="path318" style="fill-rule:evenodd;fill:#1f2433" d="m285.2 224.21c0.082 1.332 1.59 1.813 4.524 1.438 2.929-0.372 4.613-1.223 5.039-2.559 0.718-2.215-0.907-3.625-4.883-4.238-2.399-0.293-3.891 0.613-4.481 2.718-0.21 0.747-0.277 1.625-0.199 2.641z" inkscape:connector-curvature="0"/>
      <path id="path320" style="fill-rule:evenodd;fill:#1f2433" d="m261.92 175.57c-0.293 0.215-0.414 1.094-0.36 2.641l0.2 2.238 1.84-0.039c1.332-0.105 2.347-0.386 3.039-0.84 0.668-0.398 0.761-0.988 0.281-1.761-0.801-1.305-1.227-2.078-1.281-2.317-0.188-0.777-0.719-1.082-1.602-0.922-0.691 0.133-1.398 0.465-2.117 1z" inkscape:connector-curvature="0"/>
      <path id="path322" style="fill-rule:evenodd;fill:#1f2433" d="m262.24 230.49c1.918 1.09 6.078 1.614 12.481 1.559 2-0.055 3.824-1.016 5.48-2.879 1.707-1.949 2.785-4.387 3.238-7.32 0.375-2.426 0.055-3.907-0.961-4.442-1.414-0.238-2.414-0.668-3-1.281-0.691-0.719-1.597-1.184-2.718-1.398-2.239-0.426-3.785-0.774-4.641-1.039-1.73-0.563-3.051-0.403-3.957 0.48-2 1.945-3.121 3-3.363 3.16-0.906 0.531-2.918 1.277-6.039 2.238-2.239 0.719-3.371 1.442-3.399 2.161-0.027 0.984 0.774 2.492 2.399 4.519 1.597 2 3.093 3.414 4.48 4.242z" inkscape:connector-curvature="0"/>
      <path id="path324" style="fill-rule:evenodd;fill:#1f2433" d="m243.68 228.17c-0.664 0.746-0.84 2.41-0.52 5 0.32 2.879 1.293 4.625 2.922 5.238 1.52 0.559 2.934 0.266 4.238-0.879 0.774-0.722 2.055-2.105 3.84-4.16 1.469-1.387 1.84-2.679 1.121-3.879-0.64-1.066-1.801-1.64-3.48-1.722-2.133-0.239-3.707-0.371-4.719-0.399-1.734-0.054-2.867 0.211-3.402 0.801z" inkscape:connector-curvature="0"/>
      <path id="path326" style="fill-rule:evenodd;fill:#1f2433" d="m292.64 189.21c-0.559-0.16-1.653-0.348-3.282-0.562-1.359-0.211-2.437-0.477-3.238-0.797l-0.762-0.321c-1.117-0.562-1.824-0.882-2.117-0.961-0.773-0.214-1.535-0.171-2.281 0.122-2.348 0.906-4.52 2.64-6.52 5.199-2.402 3.066-3.082 5.918-2.039 8.558 1.653 4.188 2.758 6.762 3.321 7.723 1.304 2.266 3.172 4.078 5.597 5.437 2.961 1.68 6.426 2.614 10.403 2.801 3.918 0.16 7.41-0.453 10.476-1.84 5.149-2.293 5.856-6.921 2.121-13.878-1.465-2.723-3.347-5.2-5.64-7.442-2.266-2.238-4.278-3.586-6.039-4.039z" inkscape:connector-curvature="0"/>
      <path id="path328" style="fill-rule:evenodd;fill:#1f2433" d="m265.6 188.77c0.187 0.586 0.414 1.187 0.679 1.8 0.531 1.227 1.039 1.922 1.52 2.079 0.508 0.136 0.761-0.211 0.761-1.04 0-0.48-0.136-1.48-0.402-3-0.16-1.039-0.598-1.453-1.32-1.238-0.664 0.238-1.078 0.707-1.238 1.399z" inkscape:connector-curvature="0"/>
      <path id="path330" style="fill-rule:evenodd;fill:#1f2433" d="m163.68 46.288c3.254-1.89 5-2.906 5.242-3.039 1.758-0.933 2.64-2.242 2.64-3.918 0-1.121-0.386-3.535-1.16-7.242-0.457-2.746-2.254-5.508-5.402-8.281-3.305-2.852-6.266-3.961-8.879-3.317-2.961 0.719-5.734 2.266-8.32 4.637-2.879 2.641-4.492 5.48-4.84 8.52-0.293 2.562 0.773 4.601 3.199 6.121 1.469 0.828 2.574 1.453 3.32 1.879 1.387 0.773 2.454 1.546 3.2 2.32 1.679 1.734 3.121 2.851 4.32 3.359 0.801 0.348 1.801 0.492 3 0.442 0.773-0.028 2-0.52 3.68-1.481z" inkscape:connector-curvature="0"/>
      <path id="path332" style="fill-rule:evenodd;fill:#1f2433" d="m112.52 33.128c-0.024-0.824-0.266-1.73-0.719-2.719-0.559-1.281-2.332-1.066-5.321 0.641-2.984 1.707-4.464 3.308-4.441 4.801 0.027 2.558 2.254 3.211 6.684 1.957 1.25-0.344 2.211-0.907 2.879-1.68 0.691-0.824 1-1.824 0.918-3z" inkscape:connector-curvature="0"/>
      <path id="path334" style="fill-rule:evenodd;fill:#1f2433" d="m114.52 31.968c0.48 2.562 1.347 3.867 2.601 3.922 0.133 0.027 0.719-0.043 1.758-0.199 0.75-0.11 1.375-0.055 1.883 0.156 0.984 0.375 2.105 0.429 3.359 0.16 2.481-0.586 4.238-0.93 5.281-1.039 2.024-0.215 3.371-0.973 4.039-2.281 1.438-2.852 2.254-4.383 2.438-4.598 0.777-0.934 2.641-2.574 5.601-4.922 2.133-1.707 3.082-2.918 2.84-3.637-0.32-0.988-1.691-2.121-4.121-3.402-2.398-1.254-4.492-1.973-6.277-2.16-2.535-0.266-7.133 1.082-13.801 4.039-2.133 0.91-3.734 2.668-4.801 5.281-1.121 2.668-1.386 5.563-0.8 8.68z" inkscape:connector-curvature="0"/>
      <path id="path336" style="fill-rule:evenodd;fill:#1f2433" d="m126.16 0.011c-1.84 0.105-3.238 1.023-4.199 2.758-0.961 2.402-1.828 4.336-2.602 5.8-1.039 2.028-0.972 3.465 0.203 4.321 1.067 0.773 2.504 0.84 4.317 0.199 1.094-0.398 2.816-0.984 5.16-1.758 1.867-0.723 2.977-1.484 3.32-2.281 0.43-1.043 0.016-2.774-1.238-5.203-1.387-2.692-3.039-3.969-4.961-3.836z" inkscape:connector-curvature="0"/>
      <path id="path338" style="fill-rule:evenodd;fill:#1f2433" d="m124.72 66.769c1.437 0.027 2.293 0.027 2.558 0 0.907-0.133 1.707-0.508 2.399-1.121 2.16-1.973 3.84-4.665 5.043-8.079 1.437-4.132 1.144-7.265-0.883-9.398-3.25-3.414-5.332-5.453-6.238-6.121-2.215-1.652-4.856-2.613-7.922-2.879-3.758-0.348-7.774 0.293-12.039 1.918-4.215 1.574-7.707 3.734-10.481 6.48-2.398 2.375-3.226 4.946-2.48 7.719 0.668 2.403 2.402 4.735 5.199 7 2.535 2.028 5.414 3.641 8.641 4.84 3.226 1.176 5.855 1.602 7.882 1.281 0.559-0.105 1.774-0.414 3.637-0.918 1.496-0.402 2.734-0.629 3.723-0.683l0.961-0.039z" inkscape:connector-curvature="0"/>
      <path id="path340" style="fill-rule:evenodd;fill:#1f2433" d="m142.96 50.37-1.359-1.48c-1.016-0.989-1.801-1.442-2.36-1.36-0.586 0.078-0.734 0.52-0.441 1.317 0.16 0.457 0.652 1.402 1.48 2.844 0.559 0.957 1.172 1.156 1.84 0.597 0.613-0.504 0.895-1.144 0.84-1.918z" inkscape:connector-curvature="0"/>
      <path id="path342" style="fill-rule:evenodd;fill:#1f2433" d="m195.56 271.33c0-1.121-0.386-3.535-1.16-7.242-0.453-2.746-2.254-5.508-5.402-8.281-3.305-2.852-6.266-3.957-8.879-3.317-2.961 0.719-5.734 2.266-8.32 4.637-2.879 2.641-4.492 5.48-4.84 8.52-0.293 2.562 0.773 4.601 3.199 6.121 0.668 0.453 1.774 1.082 3.32 1.879 1.387 0.777 2.454 1.546 3.2 2.32 1.679 1.734 3.121 2.855 4.32 3.363 0.801 0.344 1.801 0.492 3 0.438 0.773-0.028 2-0.52 3.68-1.481 3.254-1.89 5-2.906 5.242-3.039 1.758-0.933 2.64-2.238 2.64-3.918z" inkscape:connector-curvature="0"/>
      <path id="path344" style="fill-rule:evenodd;fill:#1f2433" d="m141.12 263.09c0.133 0.027 0.719-0.039 1.758-0.199 0.75-0.106 1.375-0.055 1.883 0.16 0.984 0.375 2.105 0.426 3.359 0.16 2.481-0.586 4.238-0.934 5.281-1.039 2.024-0.215 3.371-0.977 4.039-2.281 1.438-2.852 2.254-4.387 2.438-4.602 0.777-0.933 2.641-2.574 5.601-4.918 2.133-1.707 3.082-2.922 2.84-3.64-0.32-0.989-1.691-2.122-4.121-3.399-2.398-1.254-4.492-1.976-6.277-2.16-2.535-0.27-7.133 1.078-13.801 4.039-2.133 0.906-3.734 2.664-4.801 5.281-1.121 2.664-1.386 5.559-0.8 8.68 0.48 2.559 1.347 3.863 2.601 3.918z" inkscape:connector-curvature="0"/>
      <path id="path346" style="fill-rule:evenodd;fill:#1f2433" d="m148.72 293.97c1.437 0.027 2.293 0.027 2.558 0 0.907-0.133 1.707-0.504 2.399-1.117 2.16-1.977 3.84-4.668 5.043-8.082 1.437-4.133 1.144-7.266-0.883-9.399-3.25-3.414-5.332-5.453-6.238-6.121-2.215-1.652-4.856-2.613-7.922-2.879-3.758-0.347-7.774 0.293-12.039 1.918-4.215 1.574-7.707 3.735-10.481 6.481-2.398 2.375-3.226 4.945-2.48 7.722 0.668 2.399 2.402 4.731 5.199 7 2.535 2.024 5.414 3.637 8.641 4.84 3.226 1.172 5.855 1.598 7.882 1.277 0.559-0.105 1.774-0.414 3.637-0.917 1.496-0.403 2.734-0.629 3.723-0.68l0.961-0.043z" inkscape:connector-curvature="0"/>
      <path id="path348" style="fill-rule:evenodd;fill:#1f2433" d="m174.96 277.57c-0.399-0.507-0.856-1-1.359-1.48-1.016-0.984-1.801-1.441-2.36-1.359-0.586 0.078-0.734 0.519-0.441 1.32 0.16 0.453 0.652 1.398 1.48 2.84 0.559 0.961 1.172 1.16 1.84 0.601 0.613-0.508 0.895-1.148 0.84-1.922z" inkscape:connector-curvature="0"/>
      <path id="path350" style="fill-rule:evenodd;fill:#1f2433" d="m295.36 110.57c-0.824 1.2-1.531 2.801-2.117 4.801-0.668 2.211-0.773 3.746-0.32 4.598 0.531 0.961 1.918 1.601 4.16 1.922 2.348 0.347 4.414 0.078 6.199-0.801 1.547-0.773 2.961-2.746 4.242-5.918 0.692-1.734 1.559-4.121 2.598-7.16 0.559-1.309-0.066-1.856-1.879-1.641-2.375 0.293-3.801 0.199-4.281-0.281-0.773-0.828-2.199-0.613-4.281 0.641-1.891 1.148-3.332 2.425-4.321 3.839z" inkscape:connector-curvature="0"/>
      <path id="path352" style="fill-rule:evenodd;fill:#1f2433" d="m283 115.53c-0.641 1.172-0.879 2.414-0.719 3.719 0.188 1.309 0.746 2.281 1.68 2.918 1.359 0.883 3.348-0.426 5.961-3.918 1.039-1.387 0.652-3.32-1.16-5.801-0.535-0.746-1.453-0.757-2.762-0.039-1.227 0.696-2.227 1.735-3 3.121z" inkscape:connector-curvature="0"/>
      <path id="path354" style="fill-rule:evenodd;fill:#1f2433" d="m274.72 145.33c0.023 0.531 1.89 2.106 5.597 4.719 4.028 2.824 7.453 4.824 10.282 6 2.773 1.144 5.625 1.066 8.558-0.242 1.492-0.664 4.547-2.641 9.16-5.918 3.442-2.453 6.188-5.801 8.242-10.043 1.946-4 3-8.172 3.161-12.516 0.078-1.949-0.282-3.187-1.082-3.723-0.614-0.425-1.668-0.453-3.161-0.078-1.918 0.586-3.441 1.012-4.558 1.278-1.977 0.508-3.668 0.656-5.082 0.441-1.735-0.266-4.117-0.508-7.16-0.719-1.946-0.132-3.825-0.468-5.641-1-1.973-0.613-3.906-0.015-5.801 1.801-2.265 2.664-4.25 4.746-5.957 6.238-1.519 1.336-3.054 3.895-4.601 7.68-1.305 3.199-1.957 5.227-1.957 6.082z" inkscape:connector-curvature="0"/>
      <path id="path356" style="fill-rule:evenodd;fill:#1f2433" d="m309.44 118.93c-0.293 0.691 0.161 1.387 1.36 2.082 1.281 0.746 2.519 0.851 3.719 0.32 1.203-0.508 1.855-1.109 1.96-1.801 0.082-0.535-0.187-1.254-0.8-2.16-0.532-0.801-1.586-1.015-3.16-0.64-1.598 0.375-2.625 1.105-3.079 2.199z" inkscape:connector-curvature="0"/>
      <path id="path358" style="fill-rule:evenodd;fill:#1f2433" d="m263.48 157.13c1.95 0.109 4.922 0.188 8.922 0.242 2.907 0.106 5.184-0.375 6.84-1.441 1.758-1.121 1.692-2.371-0.203-3.758-1.492-1.094-3.492-1.762-6-2-2.266-0.242-3.57-0.59-3.918-1.043-0.508-0.664-1.613-1.305-3.32-1.918-2.481-0.801-4.586-1.519-6.321-2.16-2.8-1.016-4.945-1.387-6.437-1.121-1.734 0.293-3.242 1.496-4.52 3.601-0.48 0.801 0.465 2.118 2.84 3.961 1.278 0.985 3.094 2.332 5.438 4.039 0.988 0.852 3.215 1.387 6.679 1.598z" inkscape:connector-curvature="0"/>
      <path id="path360" style="fill-rule:evenodd;fill:#1f2433" d="m37.281 273.29c1.465-1.465 1.121-2.664-1.039-3.597-1.68-0.747-3.773-0.961-6.281-0.641-2.238 0.293-3.586 0.254-4.039-0.121-0.641-0.559-1.867-0.946-3.68-1.16-2.562-0.239-4.762-0.481-6.601-0.719-2.961-0.375-5.133-0.266-6.52 0.32-1.652 0.664-2.867 2.172-3.641 4.52-0.265 0.879 0.946 1.961 3.641 3.238 1.465 0.695 3.535 1.602 6.199 2.723 1.149 0.613 3.426 0.652 6.84 0.117 1.945-0.32 4.867-0.906 8.762-1.758 2.879-0.535 5-1.508 6.359-2.922z" inkscape:connector-curvature="0"/>
      <path id="path362" style="fill-rule:evenodd;fill:#1f2433" d="m260.52 141.61c2.535 0.934 4.187 1.508 4.96 1.723 2.532 0.746 4.387 0.957 5.559 0.637 1.227-0.348 2.254-1.387 3.082-3.117 0.32-0.719 1.039-2.762 2.16-6.121 0.641-1.973 0.559-3.188-0.242-3.641-1.598-0.453-3.051-1.066-4.359-1.84-1.813-1.066-3.985-0.574-6.52 1.481-2.16 1.734-3.918 3.918-5.281 6.562-1.172 2.316-0.957 3.758 0.641 4.316z" inkscape:connector-curvature="0"/>
      <path id="path364" style="fill-rule:evenodd;fill:#1f2433" d="m252.8 139.41c-0.188 0.746 0.441 1.028 1.879 0.84 1.386-0.187 2.082-0.773 2.082-1.758 0.027-1.093-0.535-1.574-1.68-1.441-1.176 0.133-1.934 0.918-2.281 2.359z" inkscape:connector-curvature="0"/>
      <path id="path366" style="fill-rule:evenodd;fill:#1f2433" d="m277.92 159.97c-5.043 1.226-8.027 3.336-8.961 6.32-0.773 2.508-0.094 4.84 2.039 7 1.789 1.817 4.426 2.856 7.922 3.121 3.437 0.239 7.039-0.293 10.801-1.601 3.332-1.145 5.945-3.305 7.839-6.477 1.571-2.668 2.2-4.906 1.879-6.723-0.187-1.039-1.785-1.734-4.8-2.078-3.813-0.429-6.188-0.882-7.118-1.359-1.441-0.773-3.136-0.801-5.082-0.082-2.054 1.016-3.562 1.641-4.519 1.879z" inkscape:connector-curvature="0"/>
      <path id="path368" style="fill-rule:evenodd;fill:#1f2433" d="m25.082 225.37c-0.32 0.985-0.016 2.078 0.918 3.278 1.176 1.281 1.945 2.226 2.32 2.843 1.922 3.172 4.133 4.957 6.641 5.36 2.133 0.343 3.867-0.27 5.199-1.84 1.094-1.281 1.426-3.067 1-5.363-0.426-2.266-1.504-4.571-3.238-6.918-1.547-2.082-3.762-3.614-6.641-4.602-2.402-0.852-4.281-1.105-5.64-0.758-0.801 0.211-1.051 1.305-0.762 3.278 0.348 2.507 0.414 4.082 0.203 4.722z" inkscape:connector-curvature="0"/>
      <path id="path370" style="fill-rule:evenodd;fill:#1f2433" d="m357.48 209.53c3.84 0.641 5.774-0.254 5.801-2.679 0-0.668-0.172-1.856-0.519-3.563-0.348-1.68-0.52-2.918-0.52-3.719 0.028-1.652-0.242-4.558-0.801-8.718-0.531-4-0.785-6.426-0.761-7.282 0.027-1.144-1.77-2.839-5.399-5.078-4.64-2.617-7.945-4.574-9.918-5.883-4.187-2.8-7.269-4.171-9.242-4.117-1.84 0.024-2.293 1.157-1.359 3.399 0.906 2.16 0.894 4.332-0.039 6.519-0.934 2.266-2.547 3.629-4.84 4.082-2.028 0.399-2.203 2.52-0.52 6.36 0.934 2.183 2.426 4.824 4.481 7.918 1.144 1.734 4.172 4.027 9.078 6.879 5.492 3.203 10.344 5.16 14.558 5.882z" inkscape:connector-curvature="0"/>
      <path id="path372" style="fill-rule:evenodd;fill:#1f2433" d="m323.2 176.33c-0.719 2-0.664 3.078 0.16 3.238 0.614 0.106 1.895 0.375 3.84 0.801 1.789 0.188 3.028-0.148 3.723-1 0.746-0.906 1.144-1.945 1.199-3.121 0.051-0.613-0.027-1.601-0.242-2.961-0.133-1.066-0.852-1.758-2.156-2.078-1.442-0.348-2.856 0.055-4.243 1.199-0.828 0.719-1.585 2.028-2.281 3.922z" inkscape:connector-curvature="0"/>
      <path id="path374" style="fill-rule:evenodd;fill:#1f2433" d="m142.48 64.808c-0.851 0.933-1.867 2.949-3.039 6.043-1.336 3.465-2.015 6.359-2.039 8.679-0.027 2.133 0.625 2.985 1.957 2.559 0.801-0.238 2.137-0.852 4-1.84 0.934-0.293 2.52-0.945 4.762-1.957 2.215-0.988 3.547-1.551 4-1.684 0.641-0.183 1.426-1.437 2.359-3.757 0.536-1.309 1.348-3.387 2.442-6.243 1.199-2.691 1.707-4.558 1.519-5.597-0.16-0.961-0.828-1-2-0.121-1.148 0.851-2.359 1.242-3.64 1.16-1.332-0.106-2.227-0.719-2.68-1.84-0.613-1.547-3.16-0.016-7.641 4.598z" inkscape:connector-curvature="0"/>
      <path id="path376" style="fill-rule:evenodd;fill:#1f2433" d="m161.64 91.491c-0.106-1.23-0.051-2.933 0.16-5.121-0.055-1.734-0.84-2.961-2.36-3.679-1.734-0.801-3.746-1.27-6.039-1.403-1.976-0.133-3.976 0-6 0.403-1.386 0.265-3.308 0.929-5.761 2-2.586 1.144-4.121 1.773-4.602 1.878-1.066 0.266-2.184 1.094-3.359 2.481-1.2 1.414-1.957 2.851-2.278 4.32-0.269 1.25 0.719 2.371 2.957 3.36 1.282 0.558 3.442 1.293 6.481 2.199 1.359 0.48 3.094 1.199 5.199 2.16 1.816 0.559 3.695 0.375 5.641-0.559 2.027-0.961 4.265-2.519 6.722-4.683 2.184-1.918 3.266-3.039 3.239-3.356z" inkscape:connector-curvature="0"/>
      <path id="path378" style="fill-rule:evenodd;fill:#1f2433" d="m128.88 70.288c-1.703 0.719-3.145 2.055-4.317 4-0.933 1.547-1.601 3.242-2 5.082-0.402 1.84-0.683 3.918-0.839 6.238-0.215 2.75-0.121 4.547 0.277 5.403 0.348 0.719 1.227 0.637 2.641-0.242 2.16-1.36 3.464-2.106 3.921-2.239 1.2-0.375 2.333-1.254 3.399-2.64 0.851-1.067 1.762-2.614 2.719-4.641 1.547-3.226 1.468-6.121-0.239-8.68-1.601-2.425-3.453-3.187-5.562-2.281z" inkscape:connector-curvature="0"/>
      <path id="path380" style="fill-rule:evenodd;fill:#1f2433" d="m344.6 58.37c1.359 0.824 2.718 1.211 4.078 1.16 1.414-0.027 2.519-0.519 3.32-1.48 1.469-1.734 2.32-4.027 2.562-6.883 0.161-2.238-0.042-4.492-0.601-6.758-0.613-2.347-1.453-4.851-2.52-7.519-1.281-3.254-2.375-5.254-3.281-6-0.801-0.668-1.734-0.121-2.801 1.64-1.679 2.692-2.707 4.227-3.078 4.598-1.121 1.043-1.894 2.641-2.32 4.801-0.32 1.652-0.453 3.894-0.399 6.719 0.079 4.48 1.758 7.722 5.04 9.722z" inkscape:connector-curvature="0"/>
      <path id="path382" style="fill-rule:evenodd;fill:#1f2433" d="m66.16 132.45c1.067-0.023 2.867-0.172 5.402-0.437 1.704-0.082 3.118-1.215 4.239-3.403 0.828-1.597 1.453-3.664 1.879-6.199 0.64-4.027 0.386-8.117-0.758-12.281-0.481-1.652-1.629-2.453-3.442-2.398-4.105 0.078-6.386 0.078-6.839 0-2.586-0.399-4.36-0.122-5.321 0.839-0.425 0.399-1.254 2-2.48 4.801-0.559 1.25-0.305 4.348 0.762 9.278 1.039 4.8 1.984 7.71 2.839 8.722 0.641 0.774 1.879 1.133 3.719 1.078z" inkscape:connector-curvature="0"/>
      <path id="path384" style="fill-rule:evenodd;fill:#1f2433" d="m99.562 300.09c1.067-0.027 2.864-0.172 5.399-0.441 1.707-0.079 3.121-1.211 4.238-3.399 0.828-1.601 1.457-3.668 1.883-6.199 0.691-4.055 0.438-8.149-0.762-12.281-0.48-1.653-1.613-2.453-3.398-2.399-4.082 0.078-6.36 0.078-6.84 0-2.586-0.426-4.375-0.16-5.359 0.801-0.43 0.426-1.254 2.023-2.481 4.797-0.562 1.254-0.308 4.363 0.758 9.32 1.039 4.801 1.988 7.707 2.84 8.723 0.64 0.773 1.883 1.133 3.722 1.078z" inkscape:connector-curvature="0"/>
      <path id="path386" style="fill-rule:evenodd;fill:#1f2433" d="m53.602 110.81c-0.614 0.722-0.668 2.015-0.161 3.883 0.504 1.867 1.254 3.011 2.239 3.441 0.8 0.316 1.199-0.137 1.199-1.363 0.027-0.719-0.012-1.946-0.117-3.68 0.078-1.199-0.254-2.094-1-2.68s-1.469-0.453-2.16 0.399z" inkscape:connector-curvature="0"/>
      <path id="path388" style="fill-rule:evenodd;fill:#1f2433" d="m10.84 262.77c1.867 0.535 3.226 0.48 4.082-0.161 0.691-0.531 0.519-1.117-0.52-1.757-0.613-0.348-1.707-0.922-3.281-1.723-0.988-0.691-1.922-0.863-2.801-0.52-0.906 0.348-1.16 1.04-0.758 2.083 0.317 0.906 1.411 1.597 3.278 2.078z" inkscape:connector-curvature="0"/>
      <path id="path390" style="fill-rule:evenodd;fill:#1f2433" d="m53.121 124.81c-0.828 1.281-1.332 2.855-1.519 4.722-0.188 1.918 0.054 3.317 0.718 4.2 0.586 0.8 1.309 1.238 2.16 1.32 0.028 0 1.055-0.082 3.082-0.242 2.184-0.133 2.946-1.801 2.278-5-0.266-1.278-0.945-3.813-2.039-7.598-0.508-1.789-1.199-2.227-2.078-1.32-0.215 0.187-1.082 1.492-2.602 3.918z" inkscape:connector-curvature="0"/>
      <path id="path392" style="fill-rule:evenodd;fill:#1f2433" d="m69.922 145.85c1.707 2.613 3.519 4.027 5.437 4.238 1.68 0.187 2.801-0.238 3.364-1.281 0.371-0.692 0.547-1.891 0.519-3.598 0-0.879 0.012-2.242 0.039-4.082-0.105-1.758-0.426-3.719-0.961-5.879-0.508-2.027-1.039-2.707-1.597-2.039-0.348 0.504-0.629 0.918-0.844 1.238-0.399 0.535-0.774 0.883-1.117 1.043-1.442 0.317-2.547 0.625-3.321 0.918-1.441 0.532-2.441 1.438-3 2.719-0.773 1.816-0.281 4.055 1.481 6.723z" inkscape:connector-curvature="0"/>
    </g>
  </g>
<metadata><rdf:RDF><cc:Work><dc:format>image/svg+xml</dc:format><dc:type rdf:resource="http://purl.org/dc/dcmitype/StillImage"/><cc:license rdf:resource="http://creativecommons.org/licenses/publicdomain/"/><dc:publisher><cc:Agent rdf:about="http://openclipart.org/"><dc:title>Openclipart</dc:title></cc:Agent></dc:publisher></cc:Work><cc:License rdf:about="http://creativecommons.org/licenses/publicdomain/"><cc:permits rdf:resource="http://creativecommons.org/ns#Reproduction"/><cc:permits rdf:resource="http://creativecommons.org/ns#Distribution"/><cc:permits rdf:resource="http://creativecommons.org/ns#DerivativeWorks"/></cc:License></rdf:RDF></metadata></svg>
